<svg width="24" height="25" viewBox="0 0 24 25" fill="none" xmlns="http://www.w3.org/2000/svg">
<path d="M22.0311 11.3751L19.8951 7.83206C19.7388 7.57479 19.519 7.36191 19.2569 7.2138C18.9949 7.06568 18.6991 6.98727 18.3981 6.98606H16.7211V6.73706C16.7211 6.37747 16.6501 6.02142 16.5121 5.68935C16.3742 5.35729 16.1719 5.05575 15.9171 4.80206C15.4019 4.28871 14.7044 4.00035 13.9771 4.00006H3.9941C3.45076 3.99646 2.91871 4.15508 2.46604 4.45562C2.01337 4.75615 1.66068 5.18492 1.4531 5.68706C1.31576 6.01995 1.2464 6.37696 1.2491 6.73706V15.6951C1.24966 16.1158 1.40264 16.522 1.67971 16.8386C1.95678 17.1552 2.33917 17.3607 2.7561 17.4171C2.75143 17.5071 2.75143 17.5967 2.7561 17.6861C2.75254 18.1102 2.83468 18.5307 2.99758 18.9223C3.16048 19.3139 3.40079 19.6686 3.7041 19.9651C4.00173 20.2748 4.358 20.5223 4.75217 20.6932C5.14634 20.864 5.57054 20.9547 6.0001 20.9601C6.85744 20.9523 7.67765 20.6091 8.2851 20.0041C8.89199 19.4 9.23683 18.5813 9.2451 17.7251C9.25023 17.6425 9.25023 17.5596 9.2451 17.4771H14.7541C14.749 17.5596 14.749 17.6425 14.7541 17.7251C14.7504 18.1494 14.8325 18.57 14.9954 18.9618C15.1583 19.3536 15.3987 19.7085 15.7021 20.0051C16 20.3151 16.3566 20.5627 16.7511 20.7335C17.1456 20.9044 17.5702 20.995 18.0001 21.0001C18.8574 20.9923 19.6777 20.6491 20.2851 20.0441C20.8916 19.4398 21.2361 18.6212 21.2441 17.7651C21.2493 17.6821 21.2493 17.599 21.2441 17.5161H22.0001C22.1974 17.5132 22.3858 17.4338 22.5255 17.2946C22.6653 17.1554 22.7455 16.9673 22.7491 16.7701V13.8941C22.7491 13.0041 22.5001 12.1321 22.0311 11.3751ZM7.7371 17.6851C7.7374 17.9137 7.69159 18.14 7.60241 18.3504C7.51324 18.5609 7.38253 18.7513 7.2181 18.9101C6.88541 19.2262 6.44402 19.4024 5.9851 19.4024C5.52618 19.4024 5.08478 19.2262 4.7521 18.9101C4.58994 18.7483 4.46153 18.5558 4.37433 18.344C4.28712 18.1322 4.24286 17.9051 4.2441 17.6761C4.2394 17.4395 4.28722 17.2049 4.3841 16.9891C4.5161 16.6761 4.7431 16.4121 5.0321 16.2321C5.32768 16.0367 5.67587 15.9362 6.0301 15.9441C6.3681 15.9441 6.6981 16.0441 6.9781 16.2321C7.2651 16.4151 7.4911 16.6781 7.6281 16.9891C7.7261 17.2041 7.7781 17.4391 7.7771 17.6761L7.7371 17.6851ZM10.9811 12.7091H5.9911C5.72692 12.7088 5.47358 12.604 5.2864 12.4176C5.09922 12.2312 4.99342 11.9782 4.9921 11.7141C4.99183 11.583 5.01748 11.4532 5.06757 11.3321C5.11765 11.211 5.19119 11.101 5.28394 11.0085C5.37669 10.9159 5.48683 10.8426 5.60802 10.7928C5.72921 10.7429 5.85906 10.7175 5.9901 10.7181H10.9811C11.2453 10.7186 11.4985 10.8236 11.6855 11.0102C11.8725 11.1969 11.978 11.4499 11.9791 11.7141C11.9792 11.845 11.9535 11.9747 11.9033 12.0957C11.8532 12.2167 11.7796 12.3265 11.6869 12.419C11.5942 12.5114 11.4841 12.5847 11.3629 12.6345C11.2418 12.6842 11.1121 12.7096 10.9811 12.7091ZM10.9811 9.28506H5.9911C5.72692 9.2848 5.47358 9.18001 5.2864 8.99358C5.09922 8.80716 4.99342 8.55424 4.9921 8.29006C4.99197 8.1591 5.01771 8.02941 5.06786 7.90844C5.118 7.78746 5.19156 7.67759 5.28429 7.58513C5.37703 7.49267 5.48713 7.41945 5.60825 7.36967C5.72938 7.31989 5.85915 7.29453 5.9901 7.29506H10.9811C11.2451 7.29558 11.4982 7.40049 11.6852 7.58689C11.8721 7.77329 11.9778 8.02606 11.9791 8.29006C11.9792 8.42101 11.9535 8.55071 11.9033 8.67168C11.8532 8.79266 11.7796 8.90253 11.6869 8.99499C11.5942 9.08745 11.4841 9.16067 11.3629 9.21045C11.2418 9.26023 11.1121 9.28559 10.9811 9.28506ZM19.7151 17.6851C19.7153 17.9137 19.6693 18.1401 19.58 18.3506C19.4906 18.561 19.3597 18.7513 19.1951 18.9101C18.8625 19.2259 18.4213 19.402 17.9626 19.402C17.5039 19.402 17.0627 19.2259 16.7301 18.9101C16.5678 18.7483 16.4392 18.556 16.3518 18.3441C16.2644 18.1323 16.22 17.9052 16.2211 17.6761C16.2169 17.3135 16.3329 16.9597 16.5511 16.6701C16.7971 16.3431 17.1501 16.1101 17.5491 16.0131H17.7991C17.8448 16.0022 17.8924 16.0022 17.9381 16.0131H18.1381C18.4411 16.0481 18.7301 16.1611 18.9761 16.3421C19.2231 16.5231 19.4161 16.7671 19.5351 17.0491C19.6341 17.2641 19.6851 17.4991 19.6851 17.7351L19.7151 17.6851Z" fill="#7994CA"/>
<path d="M17.9603 15.9339C17.9143 15.9229 17.8663 15.9229 17.8203 15.9339H17.9603Z" fill="#7994CA"/>
</svg>
