<svg width="24" height="25" viewBox="0 0 24 25" fill="none" xmlns="http://www.w3.org/2000/svg">
<path d="M6.75 8.75003C6.75 7.35764 7.30312 6.02229 8.28769 5.03772C9.27226 4.05315 10.6076 3.50003 12 3.50003C13.3924 3.50003 14.7277 4.05315 15.7123 5.03772C16.6969 6.02229 17.25 7.35764 17.25 8.75003C17.25 8.94894 17.329 9.13971 17.4697 9.28036C17.6103 9.42101 17.8011 9.50003 18 9.50003C18.1989 9.50003 18.3897 9.42101 18.5303 9.28036C18.671 9.13971 18.75 8.94894 18.75 8.75003C18.7499 7.59888 18.4554 6.46688 17.8945 5.46162C17.3336 4.45637 16.5249 3.61127 15.5453 3.00664C14.5657 2.40202 13.4478 2.05797 12.2978 2.00718C11.1477 1.9564 10.0038 2.20058 8.97477 2.7165C7.9457 3.23243 7.06568 4.00296 6.41835 4.95486C5.77102 5.90676 5.37789 7.0084 5.27632 8.15506C5.17476 9.30173 5.36813 10.4553 5.83807 11.5062C6.30801 12.557 7.03889 13.4703 7.96125 14.159C8.75218 14.7499 9.66309 15.16 10.6298 15.3605C10.764 15.6617 10.9938 15.9103 11.2836 16.0677C11.5733 16.2252 11.9069 16.2828 12.2327 16.2316C12.5584 16.1804 12.8583 16.0232 13.0857 15.7845C13.3132 15.5457 13.4557 15.2387 13.4911 14.9108C13.5265 14.5829 13.4529 14.2525 13.2816 13.9707C13.1104 13.6889 12.851 13.4714 12.5437 13.3518C12.2363 13.2323 11.8982 13.2173 11.5815 13.3092C11.2648 13.4012 10.9872 13.595 10.7917 13.8605C9.64094 13.5884 8.61573 12.9357 7.88217 12.0081C7.14861 11.0806 6.74968 9.93258 6.75 8.75003ZM7.5 8.75003C7.50029 7.92217 7.72895 7.11044 8.16081 6.40415C8.59268 5.69787 9.211 5.1244 9.94775 4.74685C10.6845 4.3693 11.5111 4.20231 12.3367 4.26424C13.1622 4.32618 13.9547 4.61465 14.6268 5.0979C15.299 5.58115 15.8248 6.24046 16.1465 7.00328C16.4681 7.7661 16.5731 8.60286 16.4499 9.4215C16.3266 10.2401 15.98 11.0089 15.448 11.6432C14.916 12.2775 14.2194 12.7528 13.4347 13.0168C13.0312 12.6828 12.5238 12.5 12 12.5C11.4548 12.5 10.9552 12.6943 10.5652 13.0168C9.67181 12.7162 8.89531 12.1427 8.34533 11.3772C7.79535 10.6116 7.49966 9.69266 7.5 8.75003ZM12 17C12.3601 17.0002 12.7149 16.914 13.0347 16.7486C13.3545 16.5832 13.63 16.3435 13.838 16.0496C14.0459 15.7556 14.1803 15.4161 14.2298 15.0594C14.2793 14.7028 14.2425 14.3395 14.1225 14H18.375C19.0712 14 19.7389 14.2766 20.2312 14.7689C20.7234 15.2612 21 15.9288 21 16.625V17C21 18.7948 19.8577 20.3128 18.2362 21.3448C16.6058 22.3828 14.3985 23 12 23C9.6015 23 7.395 22.3828 5.76375 21.3448C4.14225 20.3128 3 18.7948 3 17V16.625C3 15.9288 3.27656 15.2612 3.76884 14.7689C4.26113 14.2766 4.92881 14 5.625 14H6.64425C7.60346 14.9794 8.81277 15.6772 10.1407 16.0175C10.5458 16.6108 11.2282 17 12 17Z" fill="#7994CA"/>
</svg>
