<svg width="20" height="21" viewBox="0 0 20 21" fill="none" xmlns="http://www.w3.org/2000/svg">
<g clip-path="url(#clip0_409_13188)">
<path fill-rule="evenodd" clip-rule="evenodd" d="M10.6667 1.85733V0.5H9.33333V1.85733C7.27204 2.01619 5.33542 2.90668 3.87306 4.36807C2.41069 5.82946 1.5189 7.76548 1.35867 9.82667H0V11.16H1.35867C1.51883 13.2224 2.41026 15.1598 3.87236 16.6231C5.33446 18.0864 7.27109 18.9795 9.33333 19.1413V20.5H10.6667V19.1413C12.7289 18.9795 14.6655 18.0864 16.1276 16.6231C17.5897 15.1598 18.4812 13.2224 18.6413 11.16H20V9.82667H18.6413C18.4811 7.76548 17.5893 5.82946 16.1269 4.36807C14.6646 2.90668 12.728 2.01619 10.6667 1.85733ZM10.6667 4.5V9.82667H16V11.16H10.6667V16.5H9.33333V11.16H4V9.82667H9.33333V4.5H10.6667Z" fill="#7994CA"/>
</g>
<defs>
<clipPath id="clip0_409_13188">
<rect width="20" height="20" fill="white" transform="translate(0 0.5)"/>
</clipPath>
</defs>
</svg>
