<svg width="24" height="25" viewBox="0 0 24 25" fill="none" xmlns="http://www.w3.org/2000/svg">
<path d="M12.0003 16.8L8.30031 19.625C8.11697 19.775 7.91697 19.846 7.70031 19.838C7.48364 19.83 7.29197 19.7673 7.12531 19.65C6.95864 19.5326 6.82964 19.3743 6.73831 19.175C6.64697 18.9756 6.64264 18.759 6.72531 18.525L8.15031 13.9L4.52531 11.325C4.32531 11.1916 4.20031 11.0166 4.15031 10.8C4.10031 10.5833 4.10864 10.3833 4.17531 10.2C4.24197 10.0166 4.35864 9.85398 4.52531 9.71198C4.69197 9.56998 4.89197 9.49931 5.12531 9.49998H9.60031L11.0503 4.69998C11.1336 4.46665 11.263 4.28731 11.4383 4.16198C11.6136 4.03665 11.801 3.97431 12.0003 3.97498C12.1996 3.97565 12.3873 4.03831 12.5633 4.16298C12.7393 4.28765 12.8683 4.46665 12.9503 4.69998L14.4003 9.49998H18.8753C19.1086 9.49998 19.3086 9.57098 19.4753 9.71298C19.642 9.85498 19.7586 10.0173 19.8253 10.2C19.892 10.3826 19.9003 10.5826 19.8503 10.8C19.8003 11.0173 19.6753 11.1923 19.4753 11.325L15.8503 13.9L17.2753 18.525C17.3586 18.7583 17.3546 18.975 17.2633 19.175C17.172 19.375 17.0426 19.5333 16.8753 19.65C16.708 19.7666 16.5163 19.8293 16.3003 19.838C16.0843 19.8466 15.8843 19.7756 15.7003 19.625L12.0003 16.8Z" fill="#7994CA"/>
</svg>
