<svg width="24" height="25" viewBox="0 0 24 25" fill="none" xmlns="http://www.w3.org/2000/svg">
<path fill-rule="evenodd" clip-rule="evenodd" d="M11.298 2.69506C11.6926 2.54741 12.1238 2.52816 12.53 2.64006L12.702 2.69506L19.702 5.32006C20.0569 5.45315 20.3667 5.68436 20.5953 5.98676C20.8239 6.28916 20.9618 6.65028 20.993 7.02806L21 7.19306V12.5561C21 14.1765 20.5624 15.7668 19.7336 17.1592C18.9048 18.5517 17.7154 19.6945 16.291 20.4671L16.025 20.6061L12.671 22.2831C12.4863 22.3753 12.2846 22.4284 12.0785 22.439C11.8723 22.4497 11.6662 22.4177 11.473 22.3451L11.329 22.2831L7.975 20.6061C6.52561 19.8813 5.29878 18.7787 4.424 17.4147C3.54923 16.0506 3.05898 14.4756 3.005 12.8561L3 12.5561V7.19306C3.00001 6.81419 3.10763 6.44311 3.31033 6.12303C3.51304 5.80295 3.8025 5.54702 4.145 5.38506L4.298 5.32006L11.298 2.69506ZM15.433 9.12906L10.835 13.7271L9.067 11.9591C8.87936 11.7715 8.62492 11.6663 8.35965 11.6664C8.09438 11.6664 7.84001 11.7719 7.6525 11.9596C7.46499 12.1472 7.3597 12.4016 7.3598 12.6669C7.35989 12.9322 7.46536 13.1865 7.653 13.3741L10.057 15.7781C10.1592 15.8803 10.2804 15.9613 10.4139 16.0166C10.5474 16.072 10.6905 16.1004 10.835 16.1004C10.9795 16.1004 11.1226 16.072 11.2561 16.0166C11.3896 15.9613 11.5108 15.8803 11.613 15.7781L16.847 10.5431C16.9425 10.4508 17.0187 10.3405 17.0711 10.2185C17.1235 10.0965 17.1511 9.96524 17.1523 9.83246C17.1534 9.69968 17.1281 9.568 17.0778 9.4451C17.0275 9.32221 16.9533 9.21055 16.8594 9.11666C16.7655 9.02277 16.6539 8.94852 16.531 8.89823C16.4081 8.84795 16.2764 8.82265 16.1436 8.82381C16.0108 8.82496 15.8796 8.85255 15.7576 8.90496C15.6356 8.95736 15.5252 9.03355 15.433 9.12906Z" fill="#7994CA"/>
</svg>
