<svg width="24" height="25" viewBox="0 0 24 25" fill="none" xmlns="http://www.w3.org/2000/svg">
<path d="M10.4748 22.5C10.0081 22.5 9.5708 22.4 9.1628 22.2C8.7548 22 8.4088 21.7167 8.1248 21.35L2.6748 14.425L3.1498 13.925C3.48314 13.575 3.88314 13.3667 4.3498 13.3C4.81647 13.2333 5.2498 13.325 5.6498 13.575L7.4998 14.7V6.5C7.4998 6.21667 7.5958 5.97933 7.7878 5.788C7.9798 5.59667 8.21714 5.50067 8.4998 5.5C8.78247 5.49933 9.02414 5.59533 9.2248 5.788C9.42547 5.98067 9.52547 6.218 9.5248 6.5V11.5H16.9998C17.8331 11.5 18.5415 11.7917 19.1248 12.375C19.7081 12.9583 19.9998 13.6667 19.9998 14.5V18.5C19.9998 19.6 19.6081 20.5417 18.8248 21.325C18.0415 22.1083 17.0998 22.5 15.9998 22.5H10.4748ZM4.1748 9C3.95814 8.63333 3.79147 8.23767 3.6748 7.813C3.55814 7.38833 3.4998 6.95067 3.4998 6.5C3.4998 5.11667 3.98747 3.93767 4.9628 2.963C5.93814 1.98833 7.11714 1.50067 8.4998 1.5C9.88247 1.49933 11.0618 1.987 12.0378 2.963C13.0138 3.939 13.5011 5.118 13.4998 6.5C13.4998 6.95 13.4415 7.38767 13.3248 7.813C13.2081 8.23833 13.0415 8.634 12.8248 9L11.0998 8C11.2331 7.76667 11.3331 7.52933 11.3998 7.288C11.4665 7.04667 11.4998 6.784 11.4998 6.5C11.4998 5.66667 11.2081 4.95833 10.6248 4.375C10.0415 3.79167 9.33314 3.5 8.4998 3.5C7.66647 3.5 6.95814 3.79167 6.3748 4.375C5.79147 4.95833 5.4998 5.66667 5.4998 6.5C5.4998 6.78333 5.53314 7.046 5.5998 7.288C5.66647 7.53 5.76647 7.76733 5.8998 8L4.1748 9Z" fill="#7994CA"/>
</svg>
