<svg width="24" height="25" viewBox="0 0 24 25" fill="none" xmlns="http://www.w3.org/2000/svg">
<path d="M11 22.225V13.075L3 8.45V16.475C3 16.8417 3.08767 17.175 3.263 17.475C3.43833 17.775 3.684 18.0167 4 18.2L11 22.225ZM13 22.225L20 18.2C20.3167 18.0167 20.5627 17.775 20.738 17.475C20.9133 17.175 21.0007 16.8417 21 16.475V8.45L13 13.075V22.225ZM16.975 8.475L19.925 6.75L13 2.775C12.6833 2.59167 12.35 2.5 12 2.5C11.65 2.5 11.3167 2.59167 11 2.775L9.025 3.9L16.975 8.475ZM12 11.35L14.975 9.65L7.05 5.05L4.05 6.775L12 11.35Z" fill="#7994CA"/>
</svg>
