<svg width="28" height="29" viewBox="0 0 28 29" fill="none" xmlns="http://www.w3.org/2000/svg">
<g clip-path="url(#clip0_409_13147)">
<path d="M23.3622 15.5335L15.8548 5.25539C15.5546 4.84426 15.0944 4.54992 14.5509 4.46525L7.63436 3.3877C6.54748 3.21838 5.51966 3.96911 5.35033 5.056L4.27278 11.9726C4.18812 12.516 4.32853 13.0439 4.63716 13.4665L12.1445 23.7446C12.4448 24.1557 12.9049 24.4501 13.4484 24.5347C13.9918 24.6194 14.5197 24.479 14.9324 24.1688L22.9265 18.3298C23.3475 18.0311 23.6419 17.5709 23.7265 17.0274C23.8112 16.484 23.6624 15.9447 23.3622 15.5335ZM8.34681 8.55901C7.5267 8.43125 6.96782 7.6661 7.09559 6.84599C7.22336 6.02588 7.98851 5.467 8.80862 5.59477C9.62872 5.72254 10.1876 6.48769 10.0598 7.30779C9.93207 8.1279 9.16692 8.68678 8.34681 8.55901Z" fill="#7994CA"/>
</g>
<defs>
<clipPath id="clip0_409_13147">
<rect width="24" height="24" fill="white" transform="translate(3.99023 0.795776) rotate(8.85506)"/>
</clipPath>
</defs>
</svg>
