<svg width="83" height="56" viewBox="0 0 83 56" fill="none" xmlns="http://www.w3.org/2000/svg">
<g clip-path="url(#clip0_123_1849)">
<mask id="mask0_123_1849" style="mask-type:luminance" maskUnits="userSpaceOnUse" x="0" y="0" width="82" height="56">
<path d="M0.830322 0.146484H81.9072V55.8533H0.830322V0.146484Z" fill="white"/>
</mask>
<g mask="url(#mask0_123_1849)">
<path fill-rule="evenodd" clip-rule="evenodd" d="M34.4947 6.24529C37.1118 3.5655 40.7543 1.90603 44.7784 1.90603C50.1437 1.90603 54.7937 4.83796 57.2976 9.20655C59.5201 8.22926 61.9275 7.72471 64.362 7.72592C74.0197 7.72592 81.8591 15.4956 81.8591 25.083C81.8591 34.6704 74.0197 42.4401 64.362 42.4401C63.1816 42.4401 62.0311 42.3234 60.9043 42.1029C58.7135 45.9437 54.5255 48.5531 49.7562 48.5531C47.8145 48.5569 45.8977 48.1237 44.1524 47.2865C41.9317 52.4174 36.7601 56.0237 30.7389 56.0237C24.4495 56.0237 19.1139 52.1242 17.0572 46.6415C16.1418 46.8315 15.2087 46.9271 14.2732 46.9265C6.79144 46.9265 0.740479 40.8867 0.740479 33.4689C0.740479 28.4846 3.4649 24.1454 7.50682 21.7998C6.64933 19.8568 6.20794 17.7609 6.21019 15.6427C6.21019 7.08148 13.2746 0.162109 21.9785 0.162109C27.0756 0.162109 31.6361 2.55164 34.4977 6.26054" fill="#00A1E0"/>
</g>
<path fill-rule="evenodd" clip-rule="evenodd" d="M12.5577 29.1146C12.5068 29.2453 12.5759 29.2726 12.5923 29.2958C12.7446 29.4042 12.8993 29.4828 13.0543 29.5711C13.883 30.0021 14.664 30.1281 15.4807 30.1281C17.144 30.1281 18.1783 29.2574 18.1783 27.8559V27.8283C18.1783 26.5324 17.0098 26.0604 15.9189 25.7232L15.7761 25.6778C14.9504 25.4145 14.238 25.1852 14.238 24.6516V24.6243C14.238 24.1669 14.6553 23.8298 15.2992 23.8298C16.0145 23.8298 16.867 24.064 17.4125 24.3604C17.4125 24.3604 17.5741 24.4631 17.6328 24.3097C17.6647 24.2267 17.9428 23.4946 17.9726 23.4125C18.0042 23.3266 17.9488 23.2618 17.8918 23.2284C17.2659 22.8531 16.4014 22.598 15.5072 22.598L15.3412 22.5986C13.818 22.5986 12.7539 23.5046 12.7539 24.8005V24.8284C12.7539 26.1947 13.9283 26.6403 15.0252 26.9482L15.2017 27.0021C16.0005 27.2437 16.6921 27.4536 16.6921 28.0048V28.0324C16.6921 28.5396 16.242 28.9178 15.5206 28.9178C15.2401 28.9178 14.3462 28.9131 13.3775 28.3109C13.2603 28.2438 13.1935 28.1954 13.1032 28.1412C13.0555 28.1127 12.9363 28.0614 12.8844 28.2151L12.5565 29.1122M36.9094 29.1122C36.8585 29.243 36.9276 29.2703 36.9446 29.2934C37.0963 29.4019 37.2516 29.4805 37.4066 29.5687C38.2353 29.9997 39.0162 30.1258 39.833 30.1258C41.4962 30.1258 42.5306 29.255 42.5306 27.8535V27.826C42.5306 26.5301 41.3651 26.058 40.2711 25.7209L40.1284 25.6754C39.3027 25.4121 38.5903 25.1828 38.5903 24.6492V24.622C38.5903 24.1646 39.0076 23.8274 39.6514 23.8274C40.3668 23.8274 41.2163 24.0617 41.7648 24.3581C41.7648 24.3581 41.9264 24.4607 41.9854 24.3074C42.017 24.2244 42.2954 23.4923 42.3222 23.4102C42.3541 23.3243 42.2984 23.2595 42.2417 23.2261C41.6158 22.8508 40.7514 22.5957 39.8571 22.5957L39.6908 22.5963C38.1676 22.5963 37.1035 23.5023 37.1035 24.7982V24.826C37.1035 26.1923 38.2779 26.638 39.3748 26.9458L39.551 26.9998C40.3528 27.2414 41.0414 27.4513 41.0414 28.0025V28.03C41.0414 28.5373 40.5913 28.9155 39.8699 28.9155C39.5889 28.9155 38.6925 28.9108 37.7268 28.3086C37.6096 28.2414 37.5411 28.1951 37.4522 28.1388C37.4221 28.1201 37.2817 28.0661 37.2337 28.2127L36.9059 29.1099M53.5386 26.3656C53.5386 27.1572 53.3883 27.7817 53.0944 28.2244C52.8011 28.6613 52.3582 28.8753 51.7412 28.8753C51.1241 28.8753 50.683 28.6631 50.3938 28.2274C50.1026 27.7876 49.9557 27.1601 49.9557 26.3685C49.9557 25.5769 50.1035 24.9553 50.3938 24.5185C50.6824 24.0845 51.1212 23.8764 51.7412 23.8764C52.3612 23.8764 52.8023 24.0866 53.0944 24.5185C53.3901 24.9553 53.5386 25.5769 53.5386 26.3685M54.9276 24.8996C54.7908 24.4452 54.5788 24.0464 54.2957 23.7122C54.0122 23.3779 53.6548 23.1082 53.2286 22.9147C52.8053 22.7197 52.3045 22.6215 51.7382 22.6215C51.1718 22.6215 50.674 22.7203 50.2478 22.9147C49.8245 23.1094 49.4638 23.3779 49.1807 23.7122C48.8981 24.0464 48.6859 24.4452 48.5487 24.8996C48.4131 25.3511 48.3443 25.8437 48.3443 26.3685C48.3443 26.8933 48.4131 27.3859 48.5487 27.8374C48.685 28.2919 48.8975 28.6906 49.1807 29.0249C49.4641 29.3591 49.8245 29.6259 50.2478 29.8165C50.674 30.0065 51.1748 30.1032 51.7382 30.1032C52.3015 30.1032 52.8023 30.0065 53.2256 29.8165C53.6488 29.6265 54.0095 29.3591 54.2927 29.0249C54.5756 28.6906 54.7875 28.2919 54.9246 27.8374C55.0599 27.3859 55.1288 26.8933 55.1288 26.3685C55.1288 25.8466 55.0599 25.3511 54.9246 24.8996M66.341 28.6525C66.2954 28.5197 66.1636 28.5698 66.1636 28.5698C65.9618 28.6458 65.7463 28.7161 65.5168 28.7513C65.2855 28.7871 65.0279 28.805 64.7567 28.805C64.086 28.805 63.5495 28.6082 63.1679 28.2186C62.7834 27.8286 62.5688 27.2012 62.5718 26.3509C62.5739 25.5769 62.764 24.9964 63.1053 24.5507C63.4422 24.1109 63.9608 23.8822 64.6464 23.8822C65.2187 23.8822 65.6569 23.9476 66.1159 24.0889C66.1159 24.0889 66.2247 24.1356 66.2769 23.9945C66.3988 23.6632 66.4888 23.4257 66.6197 23.0622C66.6566 22.9581 66.566 22.9141 66.5329 22.9015C66.3529 22.8323 65.9278 22.7188 65.6059 22.6711C65.3048 22.6259 64.9561 22.6024 64.5626 22.6024C63.9784 22.6024 63.4597 22.7007 63.0156 22.8953C62.5715 23.0897 62.1959 23.3586 61.8978 23.6928C61.5997 24.0271 61.3732 24.4258 61.2212 24.8803C61.0707 25.3318 60.9947 25.8273 60.9947 26.3521C60.9947 27.4838 61.3047 28.4015 61.9187 29.0729C62.5327 29.7473 63.4568 30.0874 64.661 30.0874C65.3734 30.0874 66.1037 29.9458 66.6283 29.7414C66.6283 29.7414 66.7285 29.6939 66.6849 29.579L66.3422 28.6525M68.7715 25.6033C68.838 25.1635 68.9605 24.797 69.153 24.5126C69.4413 24.0787 69.8803 23.8412 70.4973 23.8412C71.1144 23.8412 71.5227 24.0798 71.8148 24.5126C72.0086 24.7985 72.0933 25.1782 72.1248 25.6033L68.7566 25.6027L68.7715 25.6033ZM73.4513 24.6357C73.333 24.1989 73.0399 23.7562 72.8492 23.5539C72.5451 23.2343 72.25 23.0085 71.9549 22.8854C71.5289 22.7072 71.0706 22.6157 70.6076 22.6165C70.0204 22.6165 69.4869 22.7142 69.0547 22.9126C68.6224 23.1126 68.2588 23.3847 67.9726 23.7248C67.6868 24.0649 67.4719 24.4666 67.3347 24.9269C67.1976 25.3813 67.1285 25.8798 67.1285 26.4016C67.1285 26.9353 67.2003 27.4308 67.3416 27.8793C67.4844 28.3309 67.7142 28.7267 68.0242 29.0551C68.3342 29.3864 68.7306 29.6444 69.2076 29.8262C69.6815 30.0065 70.2568 30.1 70.9155 30.0979C72.2748 30.0935 72.9902 29.796 73.2823 29.6347C73.3344 29.606 73.3836 29.5564 73.3222 29.4136L73.0152 28.5663C72.9681 28.4399 72.8381 28.4857 72.8381 28.4857C72.5013 28.6094 72.0244 28.8316 70.9066 28.8287C70.1763 28.8275 69.6368 28.6156 69.297 28.2834C68.9512 27.9433 68.7783 27.4478 68.7515 26.7441L73.4611 26.7476C73.4611 26.7476 73.5851 26.7464 73.5979 26.6274C73.603 26.5782 73.7592 25.6775 73.4575 24.6366L73.4513 24.6357ZM31.1244 25.6033C31.1908 25.1635 31.3136 24.797 31.5059 24.5126C31.7944 24.0787 32.2332 23.8412 32.8502 23.8412C33.4672 23.8412 33.8756 24.0798 34.1677 24.5126C34.3612 24.7985 34.4458 25.1782 34.4777 25.6033L31.1095 25.6027L31.1244 25.6033ZM35.8042 24.6357C35.6861 24.1989 35.3928 23.7562 35.202 23.5539C34.898 23.2343 34.6029 23.0085 34.3078 22.8854C33.8818 22.7072 33.4235 22.6157 32.9605 22.6165C32.3733 22.6165 31.8397 22.7142 31.4075 22.9126C30.9753 23.1126 30.6117 23.3847 30.3255 23.7248C30.0403 24.0649 29.8247 24.4666 29.6876 24.9269C29.5508 25.3813 29.482 25.8798 29.482 26.4016C29.482 26.9353 29.5532 27.4308 29.6954 27.8793C29.8379 28.3309 30.068 28.7267 30.375 29.0551C30.685 29.3864 31.0814 29.6444 31.5584 29.8262C32.0323 30.0065 32.6046 30.1 33.2663 30.0979C34.6256 30.0935 35.341 29.796 35.6331 29.6347C35.6849 29.606 35.7344 29.5564 35.6727 29.4136L35.3657 28.5663C35.3183 28.4399 35.1883 28.4857 35.1883 28.4857C34.8515 28.6094 34.3746 28.8316 33.2568 28.8287C32.5295 28.8275 31.987 28.6156 31.6472 28.2834C31.3014 27.9433 31.1285 27.4478 31.1017 26.7441L35.8113 26.7476C35.8113 26.7476 35.9353 26.7464 35.9481 26.6274C35.9532 26.5782 36.1094 25.6775 35.8074 24.6366L35.8042 24.6357ZM20.9599 28.6232C20.7754 28.4783 20.7498 28.4429 20.6887 28.3488C20.5954 28.2071 20.5477 28.0057 20.5477 27.7477C20.5477 27.3431 20.6848 27.0499 20.968 26.8535C20.965 26.854 21.3734 26.5075 22.3332 26.5192C22.7604 26.5267 23.1866 26.5625 23.6089 26.6262V28.7284H23.6095C23.6095 28.7284 23.0134 28.8548 22.3397 28.8947C21.3829 28.9513 20.9596 28.6238 20.9626 28.6246L20.9599 28.6232ZM22.8319 25.3687C22.6411 25.3549 22.3937 25.3482 22.0986 25.3482C21.6962 25.3482 21.3057 25.3975 20.942 25.4942C20.5754 25.5916 20.2445 25.7423 19.9614 25.9428C19.6774 26.1421 19.4439 26.4029 19.2788 26.7051C19.1122 27.01 19.0272 27.3677 19.0272 27.7723C19.0272 28.1828 19.0996 28.5376 19.2427 28.8278C19.3829 29.1157 19.594 29.3647 19.8568 29.552C20.1182 29.7391 20.441 29.8775 20.8136 29.9596C21.1832 30.0425 21.6005 30.0845 22.0595 30.0845C22.5424 30.0845 23.0223 30.0446 23.4873 29.9675C23.8834 29.9003 24.2779 29.8248 24.6707 29.7411C24.8275 29.7056 25.0016 29.659 25.0016 29.659C25.1178 29.63 25.1089 29.5077 25.1089 29.5077L25.1062 25.2858C25.1062 24.3593 24.8546 23.6703 24.358 23.2451C23.8632 22.82 23.1389 22.606 22.1999 22.606C21.8482 22.606 21.2789 22.6529 20.9391 22.72C20.9391 22.72 19.9137 22.9159 19.4904 23.2419C19.4904 23.2419 19.3974 23.2982 19.4481 23.4257L19.7819 24.3053C19.8234 24.4194 19.9363 24.3804 19.9363 24.3804C19.9363 24.3804 19.9718 24.3666 20.0135 24.3423C20.9167 23.8585 22.0613 23.8731 22.0613 23.8731C22.5681 23.8731 22.9615 23.9743 23.2238 24.1722C23.4805 24.366 23.6113 24.6589 23.6113 25.2746V25.4702C23.2089 25.4127 22.8363 25.3796 22.8363 25.3796L22.8319 25.3687ZM60.6876 22.9851C60.6944 22.9696 60.698 22.953 60.6981 22.9361C60.6982 22.9193 60.6948 22.9026 60.6882 22.8871C60.6816 22.8715 60.6719 22.8574 60.6597 22.8457C60.6474 22.8339 60.6329 22.8247 60.617 22.8185C60.5368 22.7886 60.1371 22.7056 59.8301 22.6869C59.2399 22.6505 58.912 22.7485 58.6169 22.8786C58.3254 23.0079 58.0029 23.2158 57.824 23.4562L57.8234 22.8933C57.8234 22.8159 57.7677 22.7534 57.6884 22.7534H56.4842C56.4061 22.7534 56.3494 22.8159 56.3494 22.8933V29.7833C56.3495 29.8206 56.3646 29.8562 56.3913 29.8826C56.4181 29.9089 56.4544 29.9237 56.4922 29.9238H57.7262C57.7641 29.9237 57.8003 29.9089 57.827 29.8825C57.8537 29.8562 57.8687 29.8205 57.8687 29.7833V26.3237C57.8687 25.8604 57.9206 25.4001 58.024 25.1098C58.126 24.8228 58.2646 24.5938 58.4354 24.4296C58.5983 24.271 58.7977 24.1534 59.0166 24.0866C59.2221 24.0286 59.4348 23.9992 59.6485 23.9992C59.8945 23.9992 60.1642 24.0614 60.1642 24.0614C60.2548 24.0713 60.3052 24.0168 60.3359 23.9365C60.4167 23.7251 60.6459 23.0921 60.6906 22.966" fill="#FFFFFE"/>
<path fill-rule="evenodd" clip-rule="evenodd" d="M49.1603 19.8048C49.0077 19.7595 48.8525 19.7233 48.6956 19.6963C48.4844 19.6617 48.2705 19.6454 48.0565 19.6477C47.2061 19.6477 46.5357 19.884 46.065 20.3508C45.5976 20.814 45.2796 21.5197 45.1201 22.4483L45.0626 22.7617H43.9952C43.9952 22.7617 43.8649 22.7564 43.8375 22.8963L43.6622 23.8579C43.65 23.95 43.6902 24.0075 43.8154 24.0069H44.8545L43.8002 29.7954C43.7177 30.2616 43.6232 30.6451 43.5186 30.9356C43.4154 31.2224 43.3147 31.4373 43.1907 31.5933C43.0705 31.7443 42.9567 31.8554 42.7602 31.9202C42.5981 31.9738 42.4115 31.9985 42.207 31.9985C42.0931 31.9985 41.9417 31.9797 41.8299 31.9577C41.7182 31.936 41.66 31.9114 41.5763 31.8768C41.5763 31.8768 41.4544 31.831 41.4064 31.9513C41.3673 32.0495 41.0904 32.7986 41.0576 32.8912C41.0242 32.9827 41.071 33.0548 41.1301 33.0756C41.2684 33.1243 41.3712 33.1554 41.5596 33.1991C41.8213 33.2598 42.0419 33.2636 42.2484 33.2636C42.6813 33.2636 43.0756 33.2038 43.4026 33.0877C43.7317 32.9707 44.0181 32.7669 44.2715 32.491C44.5454 32.1934 44.7177 31.8818 44.8826 31.4566C45.0456 31.0353 45.1845 30.5123 45.2957 29.9027L46.355 24.0069H47.9039C47.9039 24.0069 48.0344 24.0116 48.0615 23.8723L48.2368 22.9106C48.249 22.8186 48.2091 22.7611 48.0833 22.7617H46.5801C46.5876 22.7283 46.6558 22.2081 46.8284 21.7185C46.902 21.5095 47.0406 21.3409 47.1581 21.2251C47.2677 21.1148 47.4028 21.0321 47.5518 20.984C47.7152 20.9344 47.8855 20.9102 48.0565 20.9125C48.1981 20.9125 48.337 20.9292 48.4428 20.9509C48.5885 20.9814 48.6452 20.9975 48.6833 21.0087C48.8365 21.0547 48.8571 21.0101 48.8872 20.9371L49.2467 19.9661C49.2837 19.8617 49.1936 19.8177 49.1603 19.8048ZM28.1536 29.8077C28.1536 29.8851 28.0975 29.9482 28.0188 29.9482H26.772C26.693 29.9482 26.637 29.8851 26.637 29.8077V19.9365C26.637 19.8594 26.693 19.7969 26.772 19.7969H28.0188C28.0975 19.7969 28.1536 19.8594 28.1536 19.9365V29.8077Z" fill="#FFFFFE"/>
</g>
<defs>
<clipPath id="clip0_123_1849">
<rect width="81.375" height="56" fill="white" transform="translate(0.8125)"/>
</clipPath>
</defs>
</svg>
