<svg width="94" height="50" viewBox="0 0 94 50" fill="none" xmlns="http://www.w3.org/2000/svg">
<mask id="mask0_123_1858" style="mask-type:luminance" maskUnits="userSpaceOnUse" x="1" y="1" width="92" height="48">
<path d="M1.44312 24.9997C1.44312 38.0869 21.84 48.6963 46.9998 48.6963C72.1597 48.6963 92.5567 38.0869 92.5567 24.9997C92.5567 11.9128 72.1597 1.30319 46.9998 1.30319C21.84 1.30319 1.44312 11.9128 1.44312 24.9997Z" fill="white"/>
</mask>
<g mask="url(#mask0_123_1858)">
<path d="M1.44312 24.9997C1.44312 38.0869 21.84 48.6963 46.9998 48.6963C72.1597 48.6963 92.5567 38.0869 92.5567 24.9997C92.5567 11.9128 72.1597 1.30319 46.9998 1.30319C21.84 1.30319 1.44312 11.9128 1.44312 24.9997Z" fill="url(#paint0_radial_123_1858)"/>
</g>
<mask id="mask1_123_1858" style="mask-type:luminance" maskUnits="userSpaceOnUse" x="-1" y="-2" width="96" height="54">
<path d="M-0.455078 -1.39517H94.4548V51.3945H-0.455078V-1.39517Z" fill="white"/>
</mask>
<g mask="url(#mask1_123_1858)">
<path d="M46.9998 46.9365C71.177 46.9365 90.777 37.1149 90.777 24.9993C90.777 12.8839 71.177 3.06208 46.9998 3.06208C22.8227 3.06208 3.22266 12.8839 3.22266 24.9993C3.22266 37.1149 22.8227 46.9365 46.9998 46.9365Z" fill="#777BB3"/>
</g>
<mask id="mask2_123_1858" style="mask-type:luminance" maskUnits="userSpaceOnUse" x="-1" y="-2" width="96" height="54">
<path d="M-0.455078 -1.39517H94.4548V51.3945H-0.455078V-1.39517Z" fill="white"/>
</mask>
<g mask="url(#mask2_123_1858)">
<path d="M26.1939 27.7202C28.1819 27.7202 29.666 27.3577 30.6051 26.6431C31.5341 25.9358 32.1757 24.7104 32.512 23.0011C32.8256 21.4034 32.7061 20.2878 32.1571 19.6857C31.5957 19.0708 30.382 18.759 28.5497 18.759H25.3727L23.6114 27.7202H26.1939ZM15.8028 38.7588C15.6553 38.7588 15.5153 38.6936 15.4215 38.5809C15.3276 38.4683 15.2895 38.32 15.3177 38.1768L19.9854 14.4294C20.0306 14.1998 20.234 14.034 20.4707 14.034H30.5308C33.6925 14.034 36.0458 14.8829 37.5249 16.5573C39.012 18.2405 39.4713 20.5934 38.8898 23.5505C38.6532 24.7552 38.2462 25.874 37.6802 26.8757C37.1135 27.8786 36.3646 28.8065 35.4539 29.6342C34.3638 30.643 33.1299 31.3746 31.79 31.805C30.4713 32.2298 28.7777 32.4452 26.7565 32.4452H22.6829L21.5196 38.3632C21.4745 38.5929 21.2711 38.7588 21.0345 38.7588H15.8028Z" fill="black"/>
<path d="M25.7804 19.2473H28.5499C30.7613 19.2473 31.5295 19.7271 31.7905 20.013C32.2235 20.4878 32.3053 21.4889 32.027 22.9078C31.7142 24.4964 31.1346 25.6228 30.3038 26.2553C29.4532 26.9028 28.0704 27.2309 26.1941 27.2309H24.2112L25.7804 19.2473ZM30.531 13.5447H20.4707C19.9975 13.5447 19.5907 13.8764 19.5004 14.3357L14.8326 38.0831C14.7763 38.3697 14.8524 38.6661 15.0401 38.8914C15.2279 39.1167 15.5077 39.2471 15.803 39.2471H21.0346C21.508 39.2471 21.9148 38.9153 22.0051 38.456L23.0906 32.9335H26.7567C28.8299 32.9335 30.5751 32.7099 31.9436 32.2692C33.3509 31.8171 34.6457 31.0505 35.7917 29.9908C36.7395 29.1286 37.5202 28.1607 38.1117 27.1139C38.7035 26.0668 39.1286 24.899 39.3752 23.6432C39.9874 20.5305 39.4901 18.038 37.8974 16.2353C36.3202 14.4499 33.8416 13.5447 30.531 13.5447ZM23.0119 28.2085H26.1941C28.3034 28.2085 29.8745 27.8157 30.9068 27.0298C31.9393 26.2439 32.6357 24.9321 32.9975 23.0939C33.3437 21.329 33.186 20.0836 32.5244 19.3581C31.862 18.6325 30.5374 18.2697 28.5499 18.2697H24.9654L23.0119 28.2085ZM30.531 14.5223C33.5574 14.5223 35.7652 15.3076 37.1529 16.8784C38.5405 18.4492 38.9584 20.6418 38.4047 23.4568C38.1768 24.6163 37.7914 25.6765 37.2488 26.637C36.7056 27.5981 35.9962 28.477 35.1196 29.2739C34.075 30.2406 32.9144 30.9294 31.6374 31.3397C30.3605 31.7511 28.734 31.9559 26.7567 31.9559H22.2755L21.0346 38.2695H15.803L20.4707 14.5223H30.531Z" fill="white"/>
<path d="M50.8856 32.4443C50.738 32.4443 50.5981 32.3792 50.5043 32.2664C50.4102 32.1538 50.3722 32.0057 50.4004 31.8623L52.4651 21.3551C52.6615 20.3558 52.6131 19.6386 52.3289 19.3355C52.1549 19.1503 51.6322 18.8396 50.0868 18.8396H46.3461L43.7501 32.0487C43.7049 32.2785 43.5014 32.4443 43.2648 32.4443H38.0744C37.9268 32.4443 37.7869 32.3792 37.693 32.2664C37.5991 32.1538 37.561 32.0056 37.5892 31.8623L42.2569 8.11496C42.302 7.88539 42.5055 7.71953 42.7421 7.71953H47.9325C48.0802 7.71953 48.2201 7.7847 48.314 7.89729C48.4079 8.01003 48.446 8.15814 48.4178 8.30152L47.2914 14.0331H51.3155C54.3811 14.0331 56.4599 14.5675 57.6707 15.667C58.9048 16.7886 59.2899 18.582 58.8154 20.9979L56.6436 32.0487C56.5985 32.2785 56.3952 32.4443 56.1584 32.4443H50.8856Z" fill="black"/>
<path d="M47.9327 7.2312H42.7424C42.269 7.2312 41.8621 7.56292 41.7718 8.02223L37.1041 31.7696C37.0478 32.0562 37.1239 32.3526 37.3117 32.5779C37.4996 32.8032 37.7794 32.9336 38.0746 32.9336H43.265C43.7383 32.9336 44.1452 32.6019 44.2355 32.1426L46.7538 19.3288H50.087C51.6298 19.3288 51.9536 19.6547 51.9666 19.6687C52.0602 19.7683 52.1833 20.2294 51.9801 21.2623L49.9153 31.7696C49.8589 32.0562 49.9351 32.3526 50.1229 32.5779C50.3108 32.8032 50.5905 32.9336 50.8858 32.9336H56.1586C56.6318 32.9336 57.0388 32.6019 57.1291 32.1426L59.3007 21.0918C59.8103 18.4977 59.3743 16.5518 58.0054 15.3077C56.6991 14.1214 54.5109 13.5448 51.3157 13.5448H47.8911L48.9033 8.39534C48.9594 8.10874 48.8835 7.81221 48.6956 7.58704C48.5078 7.36171 48.228 7.2312 47.9327 7.2312ZM47.9327 8.20878L46.6918 14.5224H51.3157C54.2251 14.5224 56.2319 15.0245 57.3364 16.0275C58.4409 17.0312 58.7717 18.6574 58.3303 20.9054L56.1586 31.956H50.8858L52.9506 21.4489C53.1856 20.2536 53.0992 19.4383 52.6913 19.0036C52.2831 18.5689 51.4149 18.3513 50.087 18.3513H45.9386L43.265 31.956H38.0746L42.7424 8.20878H47.9327Z" fill="white"/>
<path d="M67.0279 27.7202C69.0159 27.7202 70.5 27.3577 71.4391 26.6431C72.3681 25.9359 73.0097 24.7105 73.3461 23.0011C73.6597 21.4034 73.5403 20.2878 72.9911 19.6857C72.4297 19.0708 71.216 18.759 69.3837 18.759H66.2067L64.4454 27.7202H67.0279ZM56.6369 38.7588C56.4894 38.7588 56.3494 38.6936 56.2556 38.5809C56.1617 38.4683 56.1235 38.32 56.1516 38.1768L60.8194 14.4294C60.8647 14.1998 61.068 14.034 61.3048 14.034H71.3647C74.5266 14.034 76.8797 14.8829 78.3591 16.5573C79.8462 18.2404 80.3052 20.5933 79.7239 23.5505C79.4869 24.7552 79.0801 25.874 78.5141 26.8757C77.9475 27.8786 77.1986 28.8065 76.2879 29.6342C75.1977 30.643 73.9639 31.3746 72.6239 31.805C71.3053 32.2298 69.6117 32.4452 67.5904 32.4452H63.5167L62.3539 38.3632C62.3086 38.5929 62.1053 38.7588 61.8685 38.7588H56.6369Z" fill="black"/>
<path d="M66.6143 19.2473H69.3838C71.5952 19.2473 72.3634 19.7271 72.6244 20.013C73.0576 20.4878 73.1393 21.4889 72.8609 22.9077C72.5481 24.4964 71.9683 25.6228 71.1376 26.2553C70.2871 26.9028 68.9043 27.2309 67.028 27.2309H65.0453L66.6143 19.2473ZM71.3649 13.5447H61.3048C60.8315 13.5447 60.4247 13.8764 60.3344 14.3357L55.6667 38.0831C55.6103 38.3697 55.6865 38.6661 55.8741 38.8914C56.062 39.1167 56.3418 39.2471 56.637 39.2471H61.8686C62.3418 39.2471 62.7488 38.9153 62.8391 38.456L63.9245 32.9335H67.5906C69.6637 32.9335 71.409 32.7099 72.7775 32.2692C74.1848 31.8171 75.4799 31.0503 76.6259 29.9905C77.5737 29.1284 78.3541 28.1607 78.9456 27.1139C79.5373 26.0668 79.9624 24.899 80.2091 23.6432C80.8212 20.5304 80.324 18.0378 78.7313 16.2352C77.154 14.4499 74.6757 13.5447 71.3649 13.5447ZM63.8459 28.2085H67.028C69.1373 28.2085 70.7084 27.8157 71.7407 27.0298C72.7734 26.2439 73.4695 24.9321 73.8314 23.0939C74.1777 21.329 74.02 20.0836 73.3583 19.3581C72.6959 18.6325 71.3713 18.2697 69.3838 18.2697H65.7993L63.8459 28.2085ZM71.3649 14.5223C74.3913 14.5223 76.5991 15.3076 77.9868 16.8784C79.3745 18.4492 79.7922 20.6418 79.2386 23.4568C79.0107 24.6163 78.6253 25.6765 78.0827 26.637C77.5394 27.5981 76.8301 28.477 75.9535 29.2739C74.9088 30.2406 73.7483 30.9294 72.4713 31.3397C71.1943 31.7511 69.5678 31.9559 67.5906 31.9559H63.1094L61.8686 38.2695H56.637L61.3048 14.5223H71.3649Z" fill="white"/>
</g>
<defs>
<radialGradient id="paint0_radial_123_1858" cx="0" cy="0" r="1" gradientUnits="userSpaceOnUse" gradientTransform="translate(28.7956 9.63417) scale(59.8225 59.1535)">
<stop stop-color="#AEB2D5"/>
<stop offset="0.3" stop-color="#AEB2D5"/>
<stop offset="0.75" stop-color="#484C89"/>
<stop offset="1" stop-color="#484C89"/>
</radialGradient>
</defs>
</svg>
