<svg width="16" height="13" viewBox="0 0 16 13" fill="none" xmlns="http://www.w3.org/2000/svg">
<path d="M5.55 9.65L14.025 1.175C14.225 0.975 14.4583 0.875 14.725 0.875C14.9917 0.875 15.225 0.975 15.425 1.175C15.625 1.375 15.725 1.61267 15.725 1.888C15.725 2.16333 15.625 2.40067 15.425 2.6L6.25 11.8C6.05 12 5.81667 12.1 5.55 12.1C5.28333 12.1 5.05 12 4.85 11.8L0.55 7.5C0.35 7.3 0.254 7.06267 0.262 6.788C0.27 6.51333 0.374333 6.27567 0.575 6.075C0.775666 5.87433 1.01333 5.77433 1.288 5.775C1.56267 5.77567 1.8 5.87567 2 6.075L5.55 9.65Z" fill="#08CDA3"/>
</svg>
