<svg width="17" height="12" viewBox="0 0 17 12" fill="none" xmlns="http://www.w3.org/2000/svg">
<path d="M6.05 9.15L14.525 0.675C14.725 0.475 14.9583 0.375 15.225 0.375C15.4917 0.375 15.725 0.475 15.925 0.675C16.125 0.875 16.225 1.11267 16.225 1.388C16.225 1.66333 16.125 1.90067 15.925 2.1L6.75 11.3C6.55 11.5 6.31666 11.6 6.05 11.6C5.78333 11.6 5.55 11.5 5.35 11.3L1.05 7C0.849997 6.8 0.753997 6.56267 0.761997 6.288C0.769997 6.01333 0.87433 5.77567 1.075 5.575C1.27566 5.37433 1.51333 5.27433 1.788 5.275C2.06266 5.27567 2.3 5.37567 2.5 5.575L6.05 9.15Z" fill="#FE9E78"/>
</svg>
