<svg width="48" height="48" viewBox="0 0 48 48" fill="none" xmlns="http://www.w3.org/2000/svg">
<path d="M19.7188 4.3056C25.0934 -3.12176 32.7196 0.669761 36.4147 3.7645C44.7453 11.1919 47.5 20.1215 47.5 25.3171C45.8204 46.8697 28.7878 48.4057 18.6111 47.2013C10.6019 46.2535 3.38288 35.8171 0.807546 30.2908C-2.41725 24.7203 4.82649 19.6687 8.29762 17.5687C17.1313 12.2245 16.6955 8.83717 19.7188 4.3056Z" fill="#ECEDFF"/>
<path d="M34.7474 35.5711L29.0711 29.8948C30.3462 28.3185 30.9678 26.3131 30.8079 24.292C30.648 22.2708 29.7188 20.3881 28.2117 19.0319C26.7047 17.6757 24.7347 16.9494 22.708 17.0027C20.6813 17.0561 18.7522 17.885 17.3186 19.3186C15.885 20.7522 15.0561 22.6813 15.0027 24.708C14.9494 26.7347 15.6757 28.7047 17.0319 30.2117C18.3881 31.7188 20.2708 32.648 22.292 32.8079C24.3131 32.9678 26.3185 32.3462 27.8948 31.0711L33.5711 36.7474C33.6479 36.8265 33.7397 36.8896 33.8411 36.933C33.9425 36.9764 34.0515 36.9991 34.1618 37C34.2721 37.0008 34.3815 36.9797 34.4836 36.9379C34.5856 36.8961 34.6784 36.8344 34.7564 36.7564C34.8344 36.6784 34.8961 36.5856 34.9379 36.4836C34.9797 36.3815 35.0008 36.2721 35 36.1618C34.9991 36.0515 34.9764 35.9425 34.933 35.8411C34.8896 35.7397 34.8265 35.6479 34.7474 35.5711ZM22.9311 31.1687C21.6974 31.1687 20.4914 30.8029 19.4656 30.1175C18.4398 29.4321 17.6403 28.4579 17.1682 27.3181C16.6961 26.1783 16.5726 24.9241 16.8133 23.7142C17.0539 22.5042 17.648 21.3927 18.5204 20.5204C19.3927 19.648 20.5042 19.0539 21.7142 18.8133C22.9241 18.5726 24.1783 18.6961 25.3181 19.1682C26.4579 19.6403 27.4321 20.4398 28.1175 21.4656C28.8029 22.4914 29.1687 23.6974 29.1687 24.9311C29.1669 26.5848 28.5091 28.1704 27.3398 29.3398C26.1704 30.5091 24.5848 31.1669 22.9311 31.1687Z" fill="#96AAD7"/>
</svg>
