<svg width="48" height="48" viewBox="0 0 48 48" fill="none" xmlns="http://www.w3.org/2000/svg">
<path d="M19.7188 4.3056C25.0934 -3.12176 32.7196 0.669761 36.4147 3.7645C44.7453 11.1919 47.5 20.1215 47.5 25.3171C45.8204 46.8697 28.7878 48.4057 18.6111 47.2013C10.6019 46.2535 3.38288 35.8171 0.807546 30.2908C-2.41725 24.7203 4.82649 19.6687 8.29762 17.5687C17.1313 12.2245 16.6955 8.83717 19.7188 4.3056Z" fill="#ECEDFF"/>
<path d="M24.0006 19.8392C24.4606 19.8392 24.9103 19.6974 25.2928 19.4318C25.6753 19.1662 25.9734 18.7887 26.1494 18.347C26.3254 17.9053 26.3715 17.4193 26.2817 16.9504C26.192 16.4815 25.9705 16.0508 25.6452 15.7128C25.32 15.3747 24.9055 15.1445 24.4544 15.0512C24.0032 14.9579 23.5356 15.0058 23.1106 15.1888C22.6856 15.3717 22.3223 15.6815 22.0668 16.079C21.8112 16.4765 21.6748 16.9439 21.6748 17.422C21.6755 18.0628 21.9208 18.6772 22.3568 19.1304C22.7929 19.5835 23.384 19.8384 24.0006 19.8392Z" fill="#7994CA"/>
<path d="M23.6822 25.6638C23.7773 25.735 23.8915 25.7734 24.0087 25.7735C24.412 25.7735 24.9175 25.3463 25.6606 24.5973C26.2618 23.9891 26.849 23.3156 26.9511 23.1849C28.4622 21.348 29.2179 18.9674 29.0553 16.5566C29.0364 16.3735 29.0105 16.189 28.9777 16.0081C28.7383 14.8293 28.0753 13.7899 27.1238 13.1019C26.2017 12.4024 25.0935 12.0176 23.9521 12.0005C23.2241 11.9904 22.5029 12.1474 21.84 12.4602C21.1771 12.7731 20.5888 13.234 20.1169 13.8103C19.632 14.4128 19.279 15.1179 19.0825 15.8764C18.886 16.6349 18.8506 17.4288 18.9788 18.203C19.2461 19.7091 19.7998 21.1447 20.6074 22.4258C21.415 23.7069 22.4603 24.8077 23.6822 25.6638ZM23.9996 14.0261C24.6458 14.0261 25.2776 14.2252 25.8149 14.5984C26.3522 14.9715 26.771 15.5019 27.0183 16.1224C27.2657 16.7429 27.3304 17.4257 27.2043 18.0844C27.0782 18.7432 26.767 19.3482 26.31 19.8232C25.8531 20.2981 25.2709 20.6215 24.637 20.7525C24.0032 20.8836 23.3462 20.8163 22.7492 20.5593C22.1521 20.3023 21.6418 19.867 21.2828 19.3086C20.9238 18.7501 20.7321 18.0936 20.7321 17.4219C20.733 16.5214 21.0777 15.6581 21.6904 15.0215C22.3031 14.3848 23.1339 14.0268 24.0003 14.0261H23.9996Z" fill="#7994CA"/>
<path d="M15.6249 26.9855C15.4966 27.0999 15.3776 27.225 15.269 27.3596C15.1974 27.4615 15.1663 27.5881 15.1823 27.7131C15.1983 27.8381 15.2601 27.952 15.3548 28.0308C15.4495 28.1097 15.5699 28.1475 15.6908 28.1364C15.8117 28.1254 15.9238 28.0662 16.0038 27.9714C16.0788 27.8817 16.1601 27.7979 16.247 27.7207C16.3408 27.635 16.3979 27.514 16.4058 27.3845C16.4137 27.255 16.3718 27.1275 16.2893 27.0301C16.2068 26.9327 16.0905 26.8734 15.9659 26.8651C15.8412 26.8569 15.7186 26.9004 15.6249 26.9862V26.9855Z" fill="#7994CA"/>
<path d="M25.3356 28.0992C25.2799 28.0628 25.2175 28.039 25.1525 28.0292C25.0874 28.0194 25.0211 28.0239 24.9578 28.0423C24.8945 28.0608 24.8357 28.0927 24.785 28.1362C24.7343 28.1797 24.6929 28.2337 24.6635 28.2948C24.6341 28.356 24.6173 28.4228 24.6143 28.491C24.6112 28.5592 24.6219 28.6274 24.6457 28.6911C24.6695 28.7548 24.7059 28.8126 24.7524 28.8608C24.799 28.909 24.8548 28.9465 24.9161 28.971C25.1957 29.1163 25.4502 29.2377 25.7054 29.3481C25.7625 29.3728 25.8237 29.3855 25.8855 29.3856C25.9473 29.3856 26.0086 29.3731 26.0658 29.3485C26.1229 29.324 26.1749 29.288 26.2186 29.2427C26.2624 29.1973 26.2972 29.1434 26.3209 29.084C26.3446 29.0247 26.3569 28.961 26.357 28.8968C26.357 28.8325 26.3449 28.7689 26.3213 28.7095C26.2977 28.65 26.2631 28.5961 26.2194 28.5506C26.1758 28.5051 26.1239 28.469 26.0668 28.4443C25.8305 28.3462 25.5886 28.2307 25.3356 28.0992Z" fill="#7994CA"/>
<path d="M22.1651 26.2705C22.1095 26.2422 22.0492 26.2257 21.9875 26.2217C21.9258 26.2177 21.8639 26.2263 21.8054 26.2472C21.7469 26.268 21.693 26.3006 21.6466 26.3431C21.6002 26.3857 21.5624 26.4373 21.5352 26.495C21.508 26.5527 21.4921 26.6154 21.4882 26.6796C21.4844 26.7437 21.4927 26.808 21.5128 26.8688C21.5328 26.9296 21.5642 26.9857 21.6051 27.0338C21.646 27.082 21.6957 27.1214 21.7512 27.1496C21.9609 27.2571 22.1965 27.3865 22.4664 27.5434C22.5204 27.5782 22.5806 27.6012 22.6435 27.6111C22.7063 27.6211 22.7704 27.6177 22.8319 27.6012C22.8935 27.5847 22.9512 27.5555 23.0015 27.5153C23.0519 27.475 23.094 27.4246 23.1251 27.367C23.1562 27.3094 23.1759 27.2459 23.1828 27.1803C23.1897 27.1146 23.1837 27.0482 23.1653 26.985C23.1469 26.9218 23.1163 26.8631 23.0755 26.8125C23.0347 26.7618 22.9844 26.7203 22.9278 26.6904C22.6425 26.5233 22.393 26.3867 22.1651 26.2705Z" fill="#7994CA"/>
<path d="M19.2592 25.5984C18.9591 25.6062 18.6599 25.6353 18.3636 25.6856C18.3005 25.6935 18.2396 25.7145 18.1845 25.7475C18.1294 25.7806 18.0814 25.8248 18.0432 25.8776C18.005 25.9305 17.9775 25.9908 17.9623 26.055C17.9472 26.1191 17.9447 26.1858 17.9549 26.251C17.9652 26.3162 17.9881 26.3786 18.0222 26.4344C18.0563 26.4901 18.1009 26.5381 18.1533 26.5755C18.2057 26.6129 18.2649 26.6389 18.3272 26.6519C18.3896 26.6649 18.4538 26.6646 18.516 26.6511C18.7705 26.6087 19.0274 26.5844 19.285 26.5785C19.4075 26.5716 19.5225 26.5153 19.6057 26.4216C19.6888 26.3279 19.7336 26.2042 19.7304 26.0768C19.7272 25.9494 19.6764 25.8283 19.5886 25.7392C19.5009 25.6501 19.3832 25.6001 19.2606 25.5998L19.2592 25.5984Z" fill="#7994CA"/>
<path d="M28.5893 29.9964C28.8908 29.9949 29.1917 29.9707 29.4897 29.9238C29.6093 29.9001 29.7154 29.8291 29.7858 29.7259C29.8561 29.6227 29.8853 29.4952 29.8672 29.3701C29.8492 29.245 29.7852 29.132 29.6888 29.0548C29.5924 28.9777 29.4709 28.9423 29.3499 28.956C29.097 28.9961 28.8417 29.017 28.5858 29.0185C28.4641 29.0234 28.3489 29.0771 28.2645 29.1683C28.18 29.2596 28.1328 29.3812 28.1328 29.5078C28.1328 29.6345 28.18 29.7561 28.2645 29.8474C28.3489 29.9386 28.4641 29.9923 28.5858 29.9972L28.5893 29.9964Z" fill="#7994CA"/>
<path d="M32.0081 28.8968C32.0948 28.8967 32.1797 28.8715 32.2535 28.8242C32.3772 28.745 32.503 28.6607 32.6275 28.5742C32.7309 28.5016 32.8024 28.3892 32.8261 28.2618C32.8499 28.1344 32.8239 28.0025 32.754 27.8949C32.6841 27.7874 32.576 27.7131 32.4534 27.6885C32.3308 27.6638 32.2038 27.6908 32.1004 27.7634C31.9878 27.8426 31.8739 27.9189 31.7613 27.9901C31.674 28.046 31.6066 28.13 31.5693 28.2293C31.532 28.3286 31.527 28.4379 31.5549 28.5404C31.5828 28.643 31.6422 28.7333 31.724 28.7976C31.8058 28.862 31.9055 28.8968 32.0081 28.8968Z" fill="#7994CA"/>
<path d="M35.9147 31.4995L33.5336 23.6804C33.4162 23.2909 33.1819 22.9507 32.865 22.7095C32.5482 22.4683 32.1654 22.3388 31.7726 22.3399H28.6268C28.5635 22.3374 28.5003 22.3482 28.441 22.3716C28.3818 22.3951 28.3277 22.4307 28.282 22.4764C28.2363 22.5221 28.1999 22.5769 28.1751 22.6375C28.1503 22.6982 28.1375 22.7634 28.1375 22.8293C28.1375 22.8952 28.1503 22.9604 28.1751 23.021C28.1999 23.0817 28.2363 23.1365 28.282 23.1821C28.3277 23.2278 28.3818 23.2635 28.441 23.2869C28.5003 23.3104 28.5635 23.3211 28.6268 23.3186H31.4588L28.4311 26.2139C28.3452 26.3033 28.296 26.4236 28.2935 26.5499C28.291 26.6761 28.3356 26.7985 28.4179 26.8914C28.5002 26.9843 28.6138 27.0406 28.735 27.0485C28.8563 27.0564 28.9758 27.0154 29.0686 26.9339L32.4738 23.6775L32.4801 23.6695C32.5502 23.7603 32.6035 23.8638 32.6374 23.9747L35.0184 31.7937C35.0606 31.9347 35.0704 32.084 35.047 32.2297C35.0237 32.3753 34.9677 32.5132 34.8838 32.6323C34.7998 32.7514 34.6902 32.8484 34.5636 32.9155C34.4371 32.9826 34.2972 33.018 34.1551 33.0187H32.5745L30.8009 30.9735C30.7153 30.8863 30.601 30.8362 30.4811 30.8336C30.3613 30.8309 30.245 30.8758 30.1559 30.9592C30.0668 31.0425 30.0116 31.158 30.0016 31.2821C29.9916 31.4063 30.0274 31.5297 30.1019 31.6273L31.3064 33.015H17.6143L20.0995 29.3772C20.1718 29.2713 20.2007 29.1398 20.1797 29.0117C20.1587 28.8836 20.0896 28.7694 19.9877 28.6943C19.8857 28.6191 19.7592 28.5892 19.6359 28.611C19.5127 28.6328 19.4028 28.7046 19.3305 28.8105L16.458 33.0143H13.8477C13.7056 33.0136 13.5657 32.9783 13.4392 32.9112C13.3126 32.8441 13.203 32.7471 13.119 32.628C13.0351 32.5088 12.9791 32.3709 12.9558 32.2253C12.9324 32.0797 12.9422 31.9304 12.9843 31.7894L15.3654 23.9703C15.4235 23.78 15.5384 23.614 15.6936 23.4964C15.8488 23.3788 16.036 23.3157 16.228 23.3164H19.3739C19.4372 23.319 19.5004 23.3082 19.5597 23.2847C19.6189 23.2613 19.673 23.2256 19.7187 23.18C19.7644 23.1343 19.8008 23.0795 19.8256 23.0188C19.8504 22.9582 19.8632 22.893 19.8632 22.8271C19.8632 22.7612 19.8504 22.696 19.8256 22.6354C19.8008 22.5747 19.7644 22.5199 19.7187 22.4742C19.673 22.4285 19.6189 22.3929 19.5597 22.3695C19.5004 22.346 19.4372 22.3352 19.3739 22.3378H16.228C15.8353 22.3366 15.4525 22.4661 15.1357 22.7073C14.8188 22.9485 14.5845 23.2887 14.4671 23.6782L12.086 31.4973C11.9985 31.7849 11.9774 32.0899 12.0244 32.3876C12.0715 32.6853 12.1854 32.9673 12.357 33.2106C12.5285 33.454 12.7528 33.6519 13.0117 33.7884C13.2706 33.9248 13.5567 33.9959 13.847 33.9959H34.153C34.4433 33.9959 34.7294 33.9248 34.9883 33.7884C35.2472 33.6519 35.4715 33.454 35.643 33.2106C35.8146 32.9673 35.9285 32.6853 35.9756 32.3876C36.0226 32.0899 36.0015 31.7849 35.914 31.4973L35.9147 31.4995Z" fill="#7994CA"/>
<path d="M23.8808 35.0209H17.4815C17.4181 35.0183 17.3549 35.0291 17.2957 35.0526C17.2364 35.076 17.1824 35.1116 17.1367 35.1573C17.091 35.203 17.0546 35.2578 17.0298 35.3184C17.005 35.3791 16.9922 35.4443 16.9922 35.5102C16.9922 35.5761 17.005 35.6413 17.0298 35.7019C17.0546 35.7626 17.091 35.8174 17.1367 35.8631C17.1824 35.9088 17.2364 35.9444 17.2957 35.9678C17.3549 35.9913 17.4181 36.0021 17.4815 35.9995H23.8808C23.9442 36.0021 24.0074 35.9913 24.0666 35.9678C24.1259 35.9444 24.18 35.9088 24.2257 35.8631C24.2713 35.8174 24.3077 35.7626 24.3325 35.7019C24.3573 35.6413 24.3701 35.5761 24.3701 35.5102C24.3701 35.4443 24.3573 35.3791 24.3325 35.3184C24.3077 35.2578 24.2713 35.203 24.2257 35.1573C24.18 35.1116 24.1259 35.076 24.0666 35.0526C24.0074 35.0291 23.9442 35.0183 23.8808 35.0209Z" fill="#7994CA"/>
<path d="M26.8943 35.0209H25.8583C25.7366 35.0257 25.6214 35.0794 25.5369 35.1707C25.4524 35.2619 25.4053 35.3836 25.4053 35.5102C25.4053 35.6368 25.4524 35.7585 25.5369 35.8497C25.6214 35.941 25.7366 35.9946 25.8583 35.9995H26.8943C26.9577 36.0021 27.0209 35.9913 27.0801 35.9678C27.1394 35.9444 27.1935 35.9088 27.2392 35.8631C27.2849 35.8174 27.3212 35.7626 27.346 35.7019C27.3709 35.6413 27.3836 35.5761 27.3836 35.5102C27.3836 35.4443 27.3709 35.3791 27.346 35.3184C27.3212 35.2578 27.2849 35.203 27.2392 35.1573C27.1935 35.1116 27.1394 35.076 27.0801 35.0526C27.0209 35.0291 26.9577 35.0183 26.8943 35.0209Z" fill="#7994CA"/>
<path d="M32.6391 35.0209H28.7753C28.6536 35.0257 28.5384 35.0794 28.4539 35.1707C28.3695 35.2619 28.3223 35.3836 28.3223 35.5102C28.3223 35.6368 28.3695 35.7585 28.4539 35.8497C28.5384 35.941 28.6536 35.9946 28.7753 35.9995H32.6363C32.6996 36.0021 32.7628 35.9913 32.8221 35.9678C32.8813 35.9444 32.9354 35.9088 32.9811 35.8631C33.0268 35.8174 33.0632 35.7626 33.088 35.7019C33.1128 35.6413 33.1256 35.5761 33.1256 35.5102C33.1256 35.4443 33.1128 35.3791 33.088 35.3184C33.0632 35.2578 33.0268 35.203 32.9811 35.1573C32.9354 35.1116 32.8813 35.076 32.8221 35.0526C32.7628 35.0291 32.6996 35.0183 32.6363 35.0209H32.6391Z" fill="#7994CA"/>
</svg>
