<svg width="48" height="48" viewBox="0 0 48 48" fill="none" xmlns="http://www.w3.org/2000/svg">
<path d="M19.7188 4.3056C25.0934 -3.12176 32.7196 0.669761 36.4147 3.7645C44.7453 11.1919 47.5 20.1215 47.5 25.3171C45.8204 46.8697 28.7878 48.4057 18.6111 47.2013C10.6019 46.2535 3.38288 35.8171 0.807546 30.2908C-2.41725 24.7203 4.82649 19.6687 8.29762 17.5687C17.1313 12.2245 16.6955 8.83717 19.7188 4.3056Z" fill="#ECEDFF"/>
<path d="M26.9998 30.275L22.8498 32.775C22.6665 32.8916 22.4748 32.9416 22.2748 32.9249C22.0748 32.9083 21.8998 32.8416 21.7498 32.725C21.5998 32.6083 21.4832 32.4626 21.3998 32.288C21.3165 32.1133 21.2998 31.9173 21.3498 31.7L22.4498 26.975L18.7748 23.8C18.6082 23.65 18.5042 23.479 18.4628 23.287C18.4215 23.095 18.4338 22.9076 18.4998 22.725C18.5658 22.5423 18.6658 22.3923 18.7998 22.275C18.9338 22.1576 19.1172 22.0826 19.3498 22.05L24.1998 21.625L26.0748 17.175C26.1582 16.975 26.2875 16.825 26.4628 16.725C26.6382 16.625 26.8172 16.575 26.9998 16.575C27.1825 16.575 27.3615 16.625 27.5368 16.725C27.7122 16.825 27.8415 16.975 27.9248 17.175L29.7998 21.625L34.6498 22.05C34.8832 22.0833 35.0665 22.1583 35.1998 22.275C35.3332 22.3916 35.4332 22.5416 35.4998 22.725C35.5665 22.9083 35.5792 23.096 35.5378 23.288C35.4965 23.48 35.3922 23.6506 35.2248 23.8L31.5498 26.975L32.6498 31.7C32.6998 31.9166 32.6832 32.1126 32.5998 32.288C32.5165 32.4633 32.3998 32.609 32.2498 32.725C32.0998 32.841 31.9248 32.9076 31.7248 32.9249C31.5248 32.9423 31.3332 32.8923 31.1498 32.775L26.9998 30.275Z" fill="#7994CA"/>
</svg>
