<svg width="48" height="48" viewBox="0 0 48 48" fill="none" xmlns="http://www.w3.org/2000/svg">
<path d="M19.7188 4.3056C25.0934 -3.12176 32.7196 0.669761 36.4147 3.7645C44.7453 11.1919 47.5 20.1215 47.5 25.3171C45.8204 46.8697 28.7878 48.4057 18.6111 47.2013C10.6019 46.2535 3.38288 35.8171 0.807546 30.2908C-2.41725 24.7203 4.82649 19.6687 8.29762 17.5687C17.1313 12.2245 16.6955 8.83717 19.7188 4.3056Z" fill="#ECEDFF"/>
<g clip-path="url(#clip0_194_2124)">
<path d="M22.8204 16.077C21.6507 16.077 20.529 16.5417 19.7019 17.3687C18.8748 18.1958 18.4102 19.3176 18.4102 20.4872C18.4102 21.6569 18.8748 22.7786 19.7019 23.6057C20.529 24.4328 21.6507 24.8974 22.8204 24.8974C23.9901 24.8974 25.1118 24.4328 25.9389 23.6057C26.766 22.7786 27.2306 21.6569 27.2306 20.4872C27.2306 19.3176 26.766 18.1958 25.9389 17.3687C25.1118 16.5417 23.9901 16.077 22.8204 16.077ZM30.5382 24.8974C30.4709 24.8962 30.4052 24.9187 30.3528 24.961C30.3004 25.0034 30.2645 25.0628 30.2516 25.129L30.0421 26.5843C29.7113 26.7277 29.3916 26.9041 29.1049 27.1025L27.7378 26.5512C27.6165 26.5512 27.4732 26.5512 27.396 26.6946L26.2934 28.602C26.2273 28.7233 26.2493 28.8666 26.3596 28.9548L27.5283 29.8589C27.4844 30.2251 27.4844 30.5952 27.5283 30.9614L26.3596 31.8655C26.31 31.908 26.2765 31.9662 26.2644 32.0303C26.2524 32.0945 26.2626 32.1608 26.2934 32.2184L27.396 34.1258C27.4621 34.2691 27.6055 34.2691 27.7378 34.2691L29.1049 33.7178C29.3916 33.9163 29.7003 34.1037 30.0421 34.236L30.2516 35.6914C30.2736 35.8237 30.3839 35.9229 30.5382 35.9229H32.7433C32.8646 35.9229 32.9859 35.8237 33.008 35.6914L33.2174 34.236C33.5482 34.0927 33.8459 33.9163 34.1436 33.7178L35.4997 34.2691C35.643 34.2691 35.7864 34.2691 35.8636 34.1258L36.9661 32.2184C36.9969 32.1608 37.0071 32.0945 36.9951 32.0303C36.9831 31.9662 36.9495 31.908 36.9 31.8655L35.7202 30.9614C35.7423 30.774 35.7643 30.5976 35.7643 30.4102C35.7643 30.2227 35.7533 30.0463 35.7202 29.8589L36.8889 28.9548C36.9385 28.9123 36.972 28.8542 36.9841 28.79C36.9961 28.7259 36.9859 28.6595 36.9551 28.602L35.8525 26.6946C35.7864 26.5512 35.643 26.5512 35.4997 26.5512L34.1436 27.1025C33.8459 26.9041 33.5482 26.7166 33.2064 26.5843L32.9969 25.129C32.99 25.0662 32.9604 25.008 32.9138 24.9654C32.8671 24.9228 32.8065 24.8986 32.7433 24.8974H30.5382ZM22.8204 27.1025C17.9471 27.1025 14 29.0761 14 31.5127V33.7178H24.6727C24.1806 32.6845 23.9245 31.5547 23.9229 30.4102C23.9252 29.3025 24.1658 28.2082 24.6286 27.2018C24.0442 27.1356 23.4378 27.1025 22.8204 27.1025ZM31.6408 28.7563C32.5559 28.7563 33.2946 29.4951 33.2946 30.4102C33.2946 31.3253 32.5559 32.064 31.6408 32.064C30.7147 32.064 29.987 31.3253 29.987 30.4102C29.987 29.4951 30.7257 28.7563 31.6408 28.7563Z" fill="#7994CA"/>
</g>
<defs>
<clipPath id="clip0_194_2124">
<rect width="24" height="24" fill="white" transform="translate(12 12)"/>
</clipPath>
</defs>
</svg>
