<svg width="48" height="48" viewBox="0 0 48 48" fill="none" xmlns="http://www.w3.org/2000/svg">
<path d="M19.7188 4.3056C25.0934 -3.12176 32.7196 0.669761 36.4147 3.7645C44.7453 11.1919 47.5 20.1215 47.5 25.3171C45.8204 46.8697 28.7878 48.4057 18.6111 47.2013C10.6019 46.2535 3.38288 35.8171 0.807546 30.2908C-2.41725 24.7203 4.82649 19.6687 8.29762 17.5687C17.1313 12.2245 16.6955 8.83717 19.7188 4.3056Z" fill="#ECEDFF"/>
<path d="M27.0002 15C25.1437 15 23.3632 15.7375 22.0504 17.0503C20.7377 18.363 20.0002 20.1435 20.0002 22V25.528C20.0003 25.6831 19.9644 25.8362 19.8952 25.975L18.1782 29.408C18.0943 29.5757 18.0547 29.7621 18.0631 29.9494C18.0715 30.1368 18.1277 30.3188 18.2263 30.4783C18.3249 30.6379 18.4626 30.7695 18.6264 30.8608C18.7902 30.9521 18.9747 31 19.1622 31H34.8382C35.0257 31 35.2101 30.9521 35.3739 30.8608C35.5377 30.7695 35.6754 30.6379 35.774 30.4783C35.8726 30.3188 35.9288 30.1368 35.9372 29.9494C35.9457 29.7621 35.906 29.5757 35.8222 29.408L34.1062 25.975C34.0366 25.8362 34.0003 25.6832 34.0002 25.528V22C34.0002 20.1435 33.2627 18.363 31.9499 17.0503C30.6372 15.7375 28.8567 15 27.0002 15ZM27.0002 34C26.3795 34.0003 25.774 33.8081 25.2672 33.4499C24.7603 33.0917 24.3771 32.5852 24.1702 32H29.8302C29.6233 32.5852 29.24 33.0917 28.7332 33.4499C28.2263 33.8081 27.6208 34.0003 27.0002 34Z" fill="#7994CA"/>
</svg>
