<svg width="48" height="48" viewBox="0 0 48 48" fill="none" xmlns="http://www.w3.org/2000/svg">
<path d="M19.7188 4.3056C25.0934 -3.12176 32.7196 0.669761 36.4147 3.7645C44.7453 11.1919 47.5 20.1215 47.5 25.3171C45.8204 46.8697 28.7878 48.4057 18.6111 47.2013C10.6019 46.2535 3.38288 35.8171 0.807546 30.2908C-2.41725 24.7203 4.82649 19.6687 8.29762 17.5687C17.1313 12.2245 16.6955 8.83717 19.7188 4.3056Z" fill="#ECEDFF"/>
<path d="M23.3999 16.6C23.0816 16.6 22.7764 16.7264 22.5514 16.9514C22.3263 17.1765 22.1999 17.4817 22.1999 17.8C22.1999 18.1182 22.3263 18.4235 22.5514 18.6485C22.7764 18.8735 23.0816 19 23.3999 19H30.5999C30.9182 19 31.2234 18.8735 31.4484 18.6485C31.6735 18.4235 31.7999 18.1182 31.7999 17.8C31.7999 17.4817 31.6735 17.1765 31.4484 16.9514C31.2234 16.7264 30.9182 16.6 30.5999 16.6H23.3999ZM19.7999 21.4C19.7999 21.0817 19.9263 20.7765 20.1514 20.5514C20.3764 20.3264 20.6816 20.2 20.9999 20.2H32.9999C33.3182 20.2 33.6234 20.3264 33.8484 20.5514C34.0735 20.7765 34.1999 21.0817 34.1999 21.4C34.1999 21.7182 34.0735 22.0235 33.8484 22.2485C33.6234 22.4735 33.3182 22.6 32.9999 22.6H20.9999C20.6816 22.6 20.3764 22.4735 20.1514 22.2485C19.9263 22.0235 19.7999 21.7182 19.7999 21.4ZM17.3999 26.2C17.3999 25.5635 17.6528 24.953 18.1028 24.5029C18.5529 24.0528 19.1634 23.8 19.7999 23.8H34.1999C34.8364 23.8 35.4469 24.0528 35.897 24.5029C36.347 24.953 36.5999 25.5635 36.5999 26.2V31C36.5999 31.6365 36.347 32.2469 35.897 32.697C35.4469 33.1471 34.8364 33.4 34.1999 33.4H19.7999C19.1634 33.4 18.5529 33.1471 18.1028 32.697C17.6528 32.2469 17.3999 31.6365 17.3999 31V26.2Z" fill="#7994CA"/>
</svg>
