<svg width="72" height="72" viewBox="0 0 72 72" fill="none" xmlns="http://www.w3.org/2000/svg">
<path d="M29.8895 6.52638C38.0364 -4.73194 49.596 1.01522 55.197 5.70618C67.8245 16.9645 72 30.5 72 38.3754C69.4541 71.0446 43.6362 73.3728 28.2105 71.5473C16.0703 70.1105 5.12773 54.2912 1.22407 45.9145C-3.66404 37.4707 7.31594 29.8137 12.5774 26.6305C25.9674 18.5298 25.3069 13.3953 29.8895 6.52638Z" fill="#ECEDFF"/>
<path d="M50.3573 31.8368C50.538 31.7582 50.7034 31.6482 50.8457 31.5118L51.679 30.6785C51.8337 30.5238 51.9565 30.3401 52.0402 30.1379C52.124 29.9357 52.1671 29.719 52.1671 29.5002C52.1671 29.2813 52.124 29.0646 52.0402 28.8625C51.9565 28.6603 51.8337 28.4766 51.679 28.3218C51.5243 28.1671 51.3406 28.0443 51.1384 27.9606C50.9362 27.8769 50.7195 27.8337 50.5007 27.8337C50.2818 27.8337 50.0651 27.8769 49.863 27.9606C49.6608 28.0443 49.4771 28.1671 49.3223 28.3218L48.489 29.1552L48.2973 29.4435C45.9303 27.1965 42.8929 25.7858 39.649 25.4268L39.6673 25.3335V23.6668H41.334C42.2507 23.6668 43.0007 22.9168 43.0007 22.0002C43.0007 21.0835 42.2507 20.3335 41.334 20.3335H34.6673C33.7507 20.3335 33.0007 21.0835 33.0007 22.0002C33.0007 22.9168 33.7507 23.6668 34.6673 23.6668H36.334V25.3335L36.354 25.4285C32.5494 25.8586 29.0533 27.7274 26.582 30.6519C24.1107 33.5764 22.8513 37.3352 23.0618 41.1582C23.2723 44.9813 24.9368 48.5791 27.7142 51.2146C30.4917 53.8501 34.1718 55.3237 38.0007 55.3335C40.7333 55.3326 43.4138 54.5853 45.7527 53.1722C48.0916 51.759 50 49.7339 51.2719 47.3153C52.5438 44.8967 53.1309 42.1766 52.9697 39.4487C52.8085 36.7208 51.9052 34.0888 50.3573 31.8368ZM38.0007 52.0002C31.569 52.0002 26.334 46.7668 26.334 40.3335C26.334 33.9002 31.569 28.6668 38.0007 28.6668C44.4323 28.6668 49.6673 33.9002 49.6673 40.3335C49.6673 46.7668 44.4323 52.0002 38.0007 52.0002ZM39.6673 38.6668V35.3335C39.6673 34.4168 38.9173 33.6668 38.0007 33.6668C37.084 33.6668 36.334 34.4168 36.334 35.3335V40.3335C36.334 41.2502 37.084 42.0002 38.0007 42.0002H43.0007C43.9173 42.0002 44.6673 41.2502 44.6673 40.3335C44.6673 39.4168 43.9173 38.6668 43.0007 38.6668H39.6673ZM38.0007 30.3335C32.4807 30.3335 28.0007 34.8135 28.0007 40.3335C28.0007 45.8535 32.4807 50.3335 38.0007 50.3335C43.5207 50.3335 48.0007 45.8535 48.0007 40.3335C48.0007 34.8135 43.5207 30.3335 38.0007 30.3335ZM38.0007 48.6668C33.4057 48.6668 29.6673 44.9285 29.6673 40.3335C29.6673 35.7385 33.4057 32.0002 38.0007 32.0002C42.5957 32.0002 46.334 35.7385 46.334 40.3335C46.334 44.9285 42.5957 48.6668 38.0007 48.6668Z" fill="#7994CA"/>
</svg>
