<svg width="73" height="72" viewBox="0 0 73 72" fill="none" xmlns="http://www.w3.org/2000/svg">
<path d="M30.3895 6.52638C38.5364 -4.73194 50.096 1.01522 55.697 5.70618C68.3245 16.9645 72.5 30.5 72.5 38.3754C69.9541 71.0446 44.1362 73.3728 28.7105 71.5473C16.5703 70.1105 5.62773 54.2912 1.72407 45.9145C-3.16404 37.4707 7.81594 29.8137 13.0774 26.6305C26.4674 18.5298 25.8069 13.3953 30.3895 6.52638Z" fill="#ECEDFF"/>
<path d="M37.7563 19.8418C37.7563 19.5103 37.6246 19.1923 37.3902 18.9579C37.1557 18.7235 36.8378 18.5918 36.5063 18.5918C36.1748 18.5918 35.8568 18.7235 35.6224 18.9579C35.388 19.1923 35.2563 19.5103 35.2563 19.8418V22.3085C35.2563 22.64 35.388 22.9579 35.6224 23.1923C35.8568 23.4268 36.1748 23.5585 36.5063 23.5585C36.8378 23.5585 37.1557 23.4268 37.3902 23.1923C37.6246 22.9579 37.7563 22.64 37.7563 22.3085V19.8418ZM46.2746 33.1585C45.9273 31.8079 45.2967 30.5467 44.4246 29.4585C43.5601 28.3626 42.4757 27.46 41.2413 26.8085C40.0099 26.1621 38.6607 25.771 37.2746 25.6585C35.8845 25.554 34.488 25.7414 33.1746 26.2085C31.8539 26.669 30.6446 27.4014 29.6246 28.3585C28.6156 29.2993 27.8052 30.4327 27.2413 31.6918C26.6901 32.9702 26.4119 34.3497 26.4246 35.7418C26.386 37.3497 26.73 38.9438 27.4284 40.3927C28.1267 41.8415 29.1594 43.1037 30.4413 44.0751L31.0246 44.6251C31.5246 45.1418 31.5246 45.1418 31.5079 46.2918V46.8251C31.4879 47.1939 31.5446 47.5628 31.6746 47.9085C31.7913 48.2785 31.9979 48.6168 32.2746 48.8918C32.4013 49.0218 32.5402 49.1385 32.6913 49.2418V50.9085C32.6638 51.2107 32.6965 51.5154 32.7874 51.805C32.8782 52.0946 33.0255 52.3633 33.2207 52.5957C33.4159 52.8281 33.6552 53.0196 33.9248 53.1591C34.1943 53.2985 34.4888 53.3833 34.7913 53.4085H38.1246C38.7368 53.3575 39.3037 53.0656 39.7006 52.5967C40.0975 52.1279 40.292 51.5206 40.2413 50.9085V49.2418C40.3917 49.1396 40.5314 49.0224 40.6579 48.8918C40.9196 48.6151 41.1196 48.2851 41.2413 47.9251C41.369 47.5731 41.4256 47.1992 41.4079 46.8251V46.2085C41.4079 45.2918 41.4079 45.2918 41.9246 44.7085L42.5579 44.1251C44.6947 42.4633 46.0901 40.0259 46.4413 37.3418C46.6867 35.9516 46.6298 34.5248 46.2746 33.1585ZM37.8246 50.8751H35.1913V49.8251H37.8246V50.8751ZM36.5079 33.2751C35.9642 33.2751 35.4428 33.4911 35.0584 33.8756C34.6739 34.26 34.4579 34.7814 34.4579 35.3251C34.4579 35.7672 34.2823 36.1911 33.9698 36.5036C33.6572 36.8162 33.2333 36.9918 32.7913 36.9918C32.3492 36.9918 31.9253 36.8162 31.6128 36.5036C31.3002 36.1911 31.1246 35.7672 31.1246 35.3251C31.1202 34.6169 31.2564 33.9149 31.5254 33.2598C31.7943 32.6047 32.1907 32.0094 32.6915 31.5087C33.1923 31.0079 33.7875 30.6115 34.4426 30.3426C35.0977 30.0736 35.7998 29.9374 36.5079 29.9418C36.95 29.9418 37.3739 30.1174 37.6865 30.43C37.999 30.7425 38.1746 31.1664 38.1746 31.6085C38.1746 32.0505 37.999 32.4744 37.6865 32.787C37.3739 33.0995 36.95 33.2751 36.5079 33.2751ZM51.7746 37.4418H48.7246C48.3931 37.4418 48.0751 37.3101 47.8407 37.0757C47.6063 36.8413 47.4746 36.5233 47.4746 36.1918C47.4746 35.8603 47.6063 35.5423 47.8407 35.3079C48.0751 35.0735 48.3931 34.9418 48.7246 34.9418H51.7746C52.1061 34.9418 52.4241 35.0735 52.6585 35.3079C52.8929 35.5423 53.0246 35.8603 53.0246 36.1918C53.0246 36.5233 52.8929 36.8413 52.6585 37.0757C52.4241 37.3101 52.1061 37.4418 51.7746 37.4418ZM45.6413 27.4251C45.477 27.4259 45.3143 27.3939 45.1626 27.3309C45.0109 27.2679 44.8733 27.1753 44.7579 27.0585C44.5239 26.8241 44.3924 26.5064 44.3924 26.1751C44.3924 25.8439 44.5239 25.5262 44.7579 25.2918L46.9246 23.1251C47.1616 22.9043 47.475 22.7841 47.7988 22.7898C48.1226 22.7956 48.4316 22.9267 48.6606 23.1558C48.8897 23.3848 49.0209 23.6938 49.0266 24.0176C49.0323 24.3414 48.9121 24.6548 48.6913 24.8918L46.5246 27.0585C46.4098 27.1761 46.2723 27.2692 46.1205 27.3322C45.9687 27.3953 45.8056 27.4269 45.6413 27.4251ZM49.4746 48.1585C49.145 48.1497 48.8302 48.0191 48.5913 47.7918L46.4246 45.6251C46.2782 45.48 46.1699 45.3009 46.1095 45.1037C46.049 44.9066 46.0383 44.6976 46.0782 44.4953C46.1182 44.293 46.2075 44.1037 46.3383 43.9444C46.4691 43.785 46.6373 43.6604 46.8279 43.5818C47.0566 43.4854 47.3091 43.4602 47.5523 43.5096C47.7956 43.5589 48.0183 43.6805 48.1913 43.8585L50.3579 46.0251C50.4759 46.14 50.5696 46.2774 50.6336 46.4291C50.6976 46.5808 50.7306 46.7438 50.7306 46.9085C50.7306 47.0731 50.6976 47.2361 50.6336 47.3878C50.5696 47.5395 50.4759 47.6769 50.3579 47.7918C50.1237 48.0263 49.806 48.1582 49.4746 48.1585ZM27.3913 27.4251C27.0599 27.4248 26.7421 27.293 26.5079 27.0585L24.3413 24.8918C24.107 24.6553 23.9763 24.3354 23.9778 24.0026C23.9794 23.6697 24.1131 23.3511 24.3496 23.1168C24.5861 22.8825 24.906 22.7518 25.2388 22.7533C25.5717 22.7549 25.8903 22.8886 26.1246 23.1251L28.2746 25.2918C28.4492 25.4666 28.5681 25.6892 28.6162 25.9316C28.6644 26.1739 28.6396 26.4251 28.5451 26.6533C28.4506 26.8816 28.2905 27.0768 28.0852 27.2141C27.8798 27.3515 27.6383 27.4249 27.3913 27.4251ZM23.5746 48.1585C23.4098 48.1632 23.2459 48.133 23.0936 48.0698C22.9414 48.0066 22.8042 47.9119 22.6913 47.7918C22.4572 47.5574 22.3257 47.2397 22.3257 46.9085C22.3257 46.5772 22.4572 46.2595 22.6913 46.0251L24.8579 43.8585C25.0949 43.6377 25.4083 43.5175 25.7321 43.5232C26.056 43.5289 26.365 43.6601 26.594 43.8891C26.823 44.1181 26.9542 44.4271 26.9599 44.7509C26.9656 45.0748 26.8454 45.3882 26.6246 45.6251L24.4746 47.8085C24.2289 48.0335 23.9078 48.1583 23.5746 48.1585ZM24.2746 37.4418H21.2246C20.8931 37.4418 20.5751 37.3101 20.3407 37.0757C20.1063 36.8413 19.9746 36.5233 19.9746 36.1918C19.9746 35.8603 20.1063 35.5423 20.3407 35.3079C20.5751 35.0735 20.8931 34.9418 21.2246 34.9418H24.2746C24.6061 34.9418 24.9241 35.0735 25.1585 35.3079C25.3929 35.5423 25.5246 35.8603 25.5246 36.1918C25.5246 36.5233 25.3929 36.8413 25.1585 37.0757C24.9241 37.3101 24.6061 37.4418 24.2746 37.4418Z" fill="#7994CA"/>
</svg>
