<svg width="73" height="72" viewBox="0 0 73 72" fill="none" xmlns="http://www.w3.org/2000/svg">
<path d="M30.3895 6.52638C38.5364 -4.73194 50.096 1.01522 55.697 5.70618C68.3245 16.9645 72.5 30.5 72.5 38.3754C69.9541 71.0446 44.1362 73.3728 28.7105 71.5473C16.5703 70.1105 5.62773 54.2912 1.72407 45.9145C-3.16404 37.4707 7.81594 29.8137 13.0774 26.6305C26.4674 18.5298 25.8069 13.3953 30.3895 6.52638Z" fill="#ECEDFF"/>
<path d="M42.7604 46.9133L42.0021 47.7133C42.0021 47.7133 40.1971 49.6116 35.2721 44.4266C30.3471 39.2416 32.1521 37.3433 32.1521 37.3433L32.6304 36.8383C33.8071 35.5983 33.9187 33.6083 32.8904 32.1549L30.7904 29.1833C29.5171 27.3833 27.0587 27.1466 25.6004 28.6816L22.9854 31.4333C22.2637 32.1949 21.7804 33.1799 21.8387 34.2749C21.9887 37.0749 23.1854 43.0966 29.8587 50.1249C36.9371 57.5749 43.5787 57.8716 46.2937 57.6032C47.1537 57.5199 47.9004 57.0549 48.5021 56.4216L50.8687 53.9283C52.4687 52.2449 52.0187 49.3616 49.9721 48.1849L46.7887 46.3516C45.4454 45.5799 43.8104 45.8066 42.7604 46.9116" fill="#7994CA"/>
<path d="M46.8328 41.0002C48.645 40.9999 50.4077 40.4088 51.8538 39.3166C53.2999 38.2244 54.3506 36.6906 54.8466 34.9476C55.3425 33.2045 55.2568 31.3473 54.6024 29.6574C53.9479 27.9675 52.7604 26.537 51.2199 25.5826C49.6793 24.6283 47.8696 24.2022 46.0651 24.3688C44.2605 24.5355 42.5595 25.2858 41.2198 26.5061C39.88 27.7265 38.9746 29.3503 38.6407 31.1315C38.3068 32.9126 38.5627 34.7541 39.3695 36.3768C39.5215 36.6716 39.5612 37.0116 39.4811 37.3335L38.9845 39.1885C38.9353 39.3722 38.9353 39.5655 38.9845 39.7492C39.0338 39.9328 39.1305 40.1003 39.2649 40.2347C39.3993 40.3692 39.5668 40.4659 39.7505 40.5151C39.9341 40.5643 40.1275 40.5643 40.3111 40.5152L42.1661 40.0185C42.488 39.9384 42.828 39.9781 43.1228 40.1302C44.2757 40.7028 45.5455 41.0006 46.8328 41.0002Z" fill="#7994CA"/>
</svg>
