<svg width="73" height="72" viewBox="0 0 73 72" fill="none" xmlns="http://www.w3.org/2000/svg">
<path d="M30.3895 6.52638C38.5364 -4.73194 50.096 1.01522 55.697 5.70618C68.3245 16.9645 72.5 30.5 72.5 38.3754C69.9541 71.0446 44.1362 73.3728 28.7105 71.5473C16.5703 70.1105 5.62773 54.2912 1.72407 45.9145C-3.16404 37.4707 7.81594 29.8137 13.0774 26.6305C26.4674 18.5298 25.8069 13.3953 30.3895 6.52638Z" fill="#ECEDFF"/>
<path d="M52.1942 49.4323C51.3886 47.0347 48.1778 45.5339 45.8886 44.5279C44.9918 44.1351 42.509 43.4687 42.2106 42.3395C42.1038 41.9327 42.1182 41.5491 42.2058 41.1815C42.0665 41.2089 41.9249 41.223 41.783 41.2235H40.2914C39.7191 41.2229 39.1704 40.9952 38.7657 40.5905C38.3611 40.1858 38.1335 39.6371 38.133 39.0647C38.133 37.8755 39.101 36.9087 40.2914 36.9087H41.783C42.2758 36.9087 42.743 37.0755 43.1198 37.3731C43.6559 37.3024 44.1851 37.1866 44.7018 37.0267C45.3542 35.6599 45.863 34.0255 45.977 32.6187C46.4638 26.5995 42.7738 23.0779 37.483 23.6867C33.6362 24.1295 31.3382 26.9979 31.0898 30.6907C30.8386 34.4547 32.2342 37.2347 33.7166 39.2739C34.3658 40.1655 35.0478 40.7387 34.943 41.8131C34.8214 43.0835 33.463 43.4375 32.4914 43.8279C31.3402 44.2903 30.1002 44.9919 29.5146 45.3163C27.4974 46.4303 25.2834 47.7719 24.7858 49.6071C23.6838 53.6743 27.4054 54.9063 30.4778 55.4751C33.1146 55.9615 36.0878 55.9999 38.5334 55.9999C42.957 55.9999 50.9114 55.8227 52.1942 52.4975C52.559 51.5539 52.4026 50.0503 52.1942 49.4323Z" fill="#7994CA"/>
<path d="M42.7266 38.4572C42.6245 38.3 42.4848 38.1707 42.3201 38.0811C42.1554 37.9915 41.9709 37.9443 41.7834 37.944H40.2918C40.1418 37.94 39.9924 37.9661 39.8526 38.0208C39.7128 38.0754 39.5853 38.1575 39.4777 38.2623C39.3702 38.367 39.2847 38.4922 39.2263 38.6305C39.1679 38.7689 39.1379 38.9175 39.1379 39.0676C39.1379 39.2177 39.1679 39.3663 39.2263 39.5047C39.2847 39.643 39.3702 39.7682 39.4777 39.8729C39.5853 39.9776 39.7128 40.0598 39.8526 40.1144C39.9924 40.1691 40.1418 40.1952 40.2918 40.1912H41.7834C41.9886 40.191 42.1898 40.1342 42.3648 40.027C42.5398 39.9198 42.6817 39.7664 42.775 39.5836C44.8546 39.42 46.6634 38.7848 47.933 37.8468C48.2246 38.0348 48.5694 38.1448 48.9414 38.1448H49.035C49.2815 38.1449 49.5255 38.0963 49.7532 38.002C49.9808 37.9076 50.1877 37.7693 50.3618 37.595C50.536 37.4206 50.6741 37.2136 50.7682 36.9859C50.8623 36.7581 50.9106 36.514 50.9102 36.2676V32.5204C50.9103 32.1665 50.8099 31.8198 50.6207 31.5207C50.4315 31.2216 50.1613 30.9824 49.8414 30.8308C49.5662 24.8136 44.585 20 38.5002 20C32.4154 20 27.4334 24.8136 27.1594 30.8308C26.8394 30.9821 26.5689 31.2213 26.3795 31.5204C26.1902 31.8196 26.0897 32.1664 26.0898 32.5204V36.2676C26.0895 36.5139 26.1377 36.7579 26.2318 36.9855C26.3258 37.2132 26.4637 37.4201 26.6377 37.5944C26.8117 37.7687 27.0183 37.9071 27.2458 38.0015C27.4733 38.096 27.7171 38.1446 27.9634 38.1448H28.0582C28.3046 38.1447 28.5486 38.0961 28.7762 38.0018C29.0038 37.9074 29.2105 37.7691 29.3847 37.5947C29.5588 37.4204 29.6968 37.2134 29.7909 36.9857C29.885 36.758 29.9333 36.514 29.933 36.2676V32.5204C29.9329 32.1714 29.8351 31.8295 29.6507 31.5331C29.4664 31.2368 29.2028 30.998 28.8898 30.8436C29.1574 25.7736 33.3646 21.7324 38.5002 21.7324C43.6338 21.7324 47.843 25.7736 48.1094 30.8436C47.7968 30.9983 47.5336 31.2372 47.3494 31.5335C47.1653 31.8298 47.0677 32.1716 47.0674 32.5204V36.2676C47.0674 36.5164 47.1158 36.748 47.201 36.9644C46.1082 37.7464 44.5174 38.3036 42.7266 38.4572Z" fill="#7994CA"/>
</svg>
