<svg width="21" height="21" viewBox="0 0 21 21" fill="none" xmlns="http://www.w3.org/2000/svg">
<path fill-rule="evenodd" clip-rule="evenodd" d="M8.49989 1.59302C9.07989 1.59302 9.64989 1.65102 10.1989 1.76302C10.4588 1.8158 10.6871 1.96966 10.8336 2.19077C10.98 2.41187 11.0327 2.68211 10.9799 2.94202C10.9271 3.20193 10.7732 3.43023 10.5521 3.5767C10.331 3.72316 10.0608 3.7758 9.80089 3.72302C8.54138 3.46608 7.23396 3.58836 6.04394 4.0744C4.85392 4.56045 3.83473 5.38842 3.11524 6.45365C2.39574 7.51888 2.00825 8.77352 2.00174 10.059C1.99524 11.3444 2.37001 12.6029 3.07869 13.6753C3.78737 14.7478 4.79813 15.586 5.98317 16.0841C7.16821 16.5822 8.47432 16.7177 9.73636 16.4735C10.9984 16.2293 12.1597 15.6164 13.0735 14.7123C13.9872 13.8082 14.6124 12.6534 14.8699 11.394C14.896 11.2653 14.9472 11.143 15.0206 11.0341C15.094 10.9252 15.1882 10.8319 15.2976 10.7593C15.4071 10.6868 15.5298 10.6366 15.6587 10.6115C15.7876 10.5864 15.9202 10.5869 16.0489 10.613C16.1776 10.6391 16.2999 10.6904 16.4088 10.7638C16.5177 10.8372 16.611 10.9313 16.6836 11.0408C16.7561 11.1502 16.8063 11.2729 16.8314 11.4018C16.8566 11.5307 16.856 11.6633 16.8299 11.792C16.5863 12.9846 16.0895 14.111 15.3729 15.095L15.1759 15.355L18.8279 19.007C19.0091 19.1866 19.1149 19.4286 19.1236 19.6836C19.1322 19.9385 19.0431 20.1872 18.8744 20.3786C18.7058 20.57 18.4703 20.6897 18.2163 20.7132C17.9622 20.7367 17.7088 20.6622 17.5079 20.505L17.4139 20.421L13.7619 16.769C12.6973 17.608 11.4476 18.1802 10.1169 18.4379C8.78623 18.6957 7.41321 18.6314 6.1124 18.2506C4.81159 17.8698 3.62071 17.1834 2.63912 16.2487C1.65753 15.3141 0.913695 14.1582 0.469666 12.8776C0.0256366 11.597 -0.105706 10.2288 0.0865956 8.88706C0.278897 7.54536 0.789266 6.26911 1.57512 5.16477C2.36098 4.06043 3.39954 3.16004 4.60414 2.53871C5.80875 1.91738 7.14448 1.59313 8.49989 1.59302ZM16.9999 0.593018C17.187 0.593017 17.3703 0.645496 17.529 0.744489C17.6878 0.843482 17.8156 0.98502 17.8979 1.15302L17.9459 1.27002L18.0759 1.64802C18.2131 2.0502 18.4342 2.41865 18.7245 2.72896C19.0148 3.03927 19.3677 3.28437 19.7599 3.44802L19.9449 3.51802L20.3229 3.64702C20.5101 3.71088 20.6741 3.82882 20.7943 3.98591C20.9144 4.14301 20.9853 4.33221 20.998 4.52959C21.0106 4.72697 20.9644 4.92367 20.8652 5.0948C20.7661 5.26593 20.6184 5.40382 20.4409 5.49102L20.3229 5.53902L19.9449 5.66902C19.5427 5.80622 19.1743 6.0273 18.8639 6.31761C18.5536 6.60792 18.3085 6.96085 18.1449 7.35302L18.0749 7.53802L17.9459 7.91602C17.8819 8.10315 17.7639 8.26712 17.6067 8.38718C17.4496 8.50724 17.2603 8.57801 17.063 8.59053C16.8656 8.60306 16.6689 8.55677 16.4979 8.45754C16.3268 8.3583 16.189 8.21057 16.1019 8.03302L16.0539 7.91602L15.9239 7.53802C15.7867 7.13583 15.5656 6.76739 15.2753 6.45707C14.985 6.14676 14.6321 5.90167 14.2399 5.73802L14.0549 5.66802L13.6769 5.53902C13.4897 5.47516 13.3256 5.35722 13.2055 5.20012C13.0853 5.04302 13.0144 4.85382 13.0018 4.65644C12.9892 4.45906 13.0354 4.26237 13.1345 4.09124C13.2337 3.9201 13.3814 3.78222 13.5589 3.69502L13.6769 3.64702L14.0549 3.51702C14.4571 3.37982 14.8255 3.15874 15.1358 2.86842C15.4461 2.57811 15.6912 2.22518 15.8549 1.83302L15.9249 1.64802L16.0539 1.27002C16.1213 1.0726 16.2487 0.901202 16.4183 0.779807C16.5879 0.658412 16.7913 0.593101 16.9999 0.593018ZM16.9999 3.78902C16.7633 4.08672 16.4936 4.35646 16.1959 4.59302C16.4946 4.82968 16.7626 5.09768 16.9999 5.39702C17.2366 5.09835 17.5046 4.83035 17.8039 4.59302C17.5062 4.35646 17.2364 4.08672 16.9999 3.78902Z" fill="white"/>
</svg>
