<svg width="56" height="57" viewBox="0 0 56 57" fill="none" xmlns="http://www.w3.org/2000/svg">
<path d="M42.0003 42.5001C47.155 42.5001 51.3337 34.1427 51.3337 23.8334C51.3337 13.5241 47.155 5.16675 42.0003 5.16675C36.8457 5.16675 32.667 13.5241 32.667 23.8334C32.667 34.1427 36.8457 42.5001 42.0003 42.5001Z" stroke="#08CDA3" stroke-width="2"/>
<path d="M42.0003 5.16675C34.7598 5.16675 19.7523 10.7145 11.1328 14.1588C7.18564 15.736 4.66699 19.5828 4.66699 23.8334C4.66699 28.084 7.18564 31.9308 11.1328 33.5081C19.7523 36.9524 34.7598 42.5001 42.0003 42.5001" fill="#08CDA3"/>
<path d="M25.6667 51.8333L21.1324 49.3374C16.1956 46.62 13.4086 41.1313 14.1061 35.5" stroke="#08CDA3" stroke-width="2" stroke-linecap="round" stroke-linejoin="round"/>
</svg>
