<svg width="56" height="51" viewBox="0 0 56 51" fill="none" xmlns="http://www.w3.org/2000/svg">
<path d="M0 9.875H56C56 6.42773 53.2097 3.625 49.7778 3.625H6.22222C2.79028 3.625 0 6.42773 0 9.875ZM0 13V41.125C0 44.5723 2.79028 47.375 6.22222 47.375H49.7778C53.2097 47.375 56 44.5723 56 41.125V13H0ZM6.22222 40.0801C6.22222 37.1992 8.54583 34.875 11.4042 34.875H22.8083C25.6764 34.875 27.9903 37.209 27.9903 40.0801C27.9903 40.6562 27.5236 41.125 26.95 41.125H7.2625C6.68889 41.125 6.22222 40.6562 6.22222 40.0801ZM17.1111 19.25C18.7613 19.25 20.344 19.9085 21.5109 21.0806C22.6778 22.2527 23.3333 23.8424 23.3333 25.5C23.3333 27.1576 22.6778 28.7473 21.5109 29.9194C20.344 31.0915 18.7613 31.75 17.1111 31.75C15.4609 31.75 13.8782 31.0915 12.7113 29.9194C11.5444 28.7473 10.8889 27.1576 10.8889 25.5C10.8889 23.8424 11.5444 22.2527 12.7113 21.0806C13.8782 19.9085 15.4609 19.25 17.1111 19.25ZM34.2222 20.8125C34.2222 19.9531 34.9222 19.25 35.7778 19.25H48.2222C49.0778 19.25 49.7778 19.9531 49.7778 20.8125C49.7778 21.6719 49.0778 22.375 48.2222 22.375H35.7778C34.9222 22.375 34.2222 21.6719 34.2222 20.8125ZM34.2222 27.0625C34.2222 26.2031 34.9222 25.5 35.7778 25.5H48.2222C49.0778 25.5 49.7778 26.2031 49.7778 27.0625C49.7778 27.9219 49.0778 28.625 48.2222 28.625H35.7778C34.9222 28.625 34.2222 27.9219 34.2222 27.0625ZM34.2222 33.3125C34.2222 32.4531 34.9222 31.75 35.7778 31.75H48.2222C49.0778 31.75 49.7778 32.4531 49.7778 33.3125C49.7778 34.1719 49.0778 34.875 48.2222 34.875H35.7778C34.9222 34.875 34.2222 34.1719 34.2222 33.3125Z" fill="#DBBE1A"/>
</svg>
