<svg width="56" height="57" viewBox="0 0 56 57" fill="none" xmlns="http://www.w3.org/2000/svg">
<path d="M7 26.1365V36.6491C7 43.2566 7 46.5606 9.05025 48.6132C11.1005 50.6661 14.4003 50.6661 21 50.6661H34.9999C41.5995 50.6661 44.8993 50.6661 46.9496 48.6132C48.9999 46.5606 48.9999 43.2566 48.9999 36.6491V26.1365" fill="#A169F0"/>
<path d="M34.9999 40.1125C33.4037 41.5293 30.8625 42.4459 27.9999 42.4459C25.1374 42.4459 22.5962 41.5293 21 40.1125" stroke="white" stroke-width="2" stroke-linecap="round"/>
<path d="M41.5235 6.34027L14.3499 6.40812C10.2942 6.1992 9.25432 9.32612 9.25432 10.8547C9.25432 12.2218 9.07827 14.2148 6.59255 17.9606C4.10682 21.7065 4.29361 22.8193 5.69531 25.4124C6.85864 27.5646 9.81761 28.4053 11.3604 28.5467C16.2609 28.6583 18.6452 24.4207 18.6452 21.4423C21.0762 28.9259 27.99 28.9259 31.0704 28.07C34.157 27.2128 36.8009 24.144 37.4248 21.4423C37.7886 24.7999 38.8927 26.7589 42.1549 28.1053C45.5341 29.4997 48.44 27.3684 49.8981 26.002C51.3562 24.6358 52.2919 21.6028 49.6928 18.2691C47.9003 15.9701 47.1532 13.8043 46.9079 11.5595C46.7656 10.2589 46.6408 8.86125 45.727 7.97185C44.3914 6.67209 42.4753 6.27771 41.5235 6.34027Z" stroke="#A169F0" stroke-width="2" stroke-linecap="round" stroke-linejoin="round"/>
</svg>
