<svg width="57" height="56" viewBox="0 0 57 56" fill="none" xmlns="http://www.w3.org/2000/svg">
<path d="M50.6663 4.08325H6.33301C4.40276 4.08325 2.83301 5.653 2.83301 7.58325V37.9166C2.83301 39.8468 4.40276 41.4166 6.33301 41.4166H22.503L21.0447 47.2499H20.333C18.4028 47.2499 16.833 48.8197 16.833 50.7499C16.833 51.3933 17.3563 51.9166 17.9997 51.9166H38.9997C39.6431 51.9166 40.1663 51.3933 40.1663 50.7499C40.1278 48.4265 38.1848 47.0271 35.9547 47.2499L34.4963 41.4166H50.6663C52.5966 41.4166 54.1663 39.8468 54.1663 37.9166V7.58325C54.1663 5.653 52.5966 4.08325 50.6663 4.08325ZM3.99967 7.58325C3.99967 6.29642 5.04617 5.24992 6.33301 5.24992H50.6663C51.9532 5.24992 52.9997 6.29642 52.9997 7.58325V34.9999H3.99967V7.58325Z" fill="#FE9E78"/>
<path d="M19.8882 13.5367L24.4878 16.6622C24.5844 16.7279 24.6987 16.7631 24.8156 16.7631C25.3669 16.7841 25.6206 15.9972 25.144 15.6973L21.2544 13.0543L25.144 10.4112C25.7711 9.98009 25.123 9.02051 24.4878 9.44634L19.8882 12.5718C19.5522 12.7865 19.5516 13.322 19.8882 13.5367ZM31.7001 16.5076C31.8827 16.7759 32.2473 16.8418 32.5109 16.6622L37.1105 13.5367C37.189 13.483 37.2531 13.411 37.2975 13.327C37.3418 13.2429 37.365 13.1493 37.365 13.0543C37.365 12.9592 37.3418 12.8656 37.2975 12.7816C37.2531 12.6975 37.189 12.6255 37.1105 12.5718L32.5109 9.44634C31.878 9.02343 31.2253 9.97776 31.8547 10.4112L35.7444 13.0543L31.8547 15.6973C31.7269 15.7844 31.6388 15.9186 31.6098 16.0705C31.5809 16.2224 31.6133 16.3796 31.7001 16.5076ZM27.6535 17.4893C27.8055 17.5179 27.9626 17.4852 28.0904 17.3983C28.2183 17.3114 28.3066 17.1774 28.336 17.0256L29.8089 9.30051C29.8379 9.14851 29.8054 8.99121 29.7184 8.86322C29.6314 8.73522 29.4972 8.64702 29.3452 8.61801C29.1932 8.589 29.0359 8.62157 28.9079 8.70854C28.7799 8.79551 28.6917 8.92976 28.6627 9.08176L27.1898 16.8068C27.1754 16.8821 27.176 16.9595 27.1915 17.0345C27.207 17.1095 27.2372 17.1808 27.2802 17.2442C27.3233 17.3076 27.3784 17.3618 27.4425 17.4039C27.5065 17.446 27.5782 17.475 27.6535 17.4893ZM10.416 19.8332H9.24935C9.09464 19.8332 8.94627 19.8946 8.83687 20.004C8.72747 20.1134 8.66602 20.2618 8.66602 20.4165C8.66602 20.5712 8.72747 20.7196 8.83687 20.829C8.94627 20.9384 9.09464 20.9998 9.24935 20.9998H10.416C11.1825 20.987 11.1831 19.846 10.416 19.8332ZM13.916 20.9998H26.166C26.3207 20.9998 26.4691 20.9384 26.5785 20.829C26.6879 20.7196 26.7493 20.5712 26.7493 20.4165C26.7493 20.2618 26.6879 20.1134 26.5785 20.004C26.4691 19.8946 26.3207 19.8332 26.166 19.8332H13.916C13.153 19.8448 13.146 20.9864 13.916 20.9998ZM30.8327 20.9998H36.0827C36.848 20.9876 36.8509 19.846 36.0827 19.8332H30.8327C30.0674 19.8454 30.0644 20.987 30.8327 20.9998ZM10.416 23.3332H9.24935C9.09464 23.3332 8.94627 23.3946 8.83687 23.504C8.72747 23.6134 8.66602 23.7618 8.66602 23.9165C8.66602 24.0712 8.72747 24.2196 8.83687 24.329C8.94627 24.4384 9.09464 24.4998 9.24935 24.4998H10.416C11.1825 24.487 11.1831 23.346 10.416 23.3332ZM13.916 24.4998H23.2493C23.4041 24.4998 23.5524 24.4384 23.6618 24.329C23.7712 24.2196 23.8327 24.0712 23.8327 23.9165C23.8327 23.7618 23.7712 23.6134 23.6618 23.504C23.5524 23.3946 23.4041 23.3332 23.2493 23.3332H13.916C13.1518 23.3454 13.1472 24.487 13.916 24.4998ZM47.7494 23.3332H41.3327C40.5679 23.3454 40.5644 24.487 41.3327 24.4998H47.7494C48.5141 24.4876 48.5176 23.346 47.7494 23.3332ZM37.8327 23.3332H27.916C27.1524 23.3448 27.1466 24.487 27.916 24.4998H37.8327C38.5963 24.4882 38.6021 23.346 37.8327 23.3332ZM10.416 26.8332H9.24935C9.09464 26.8332 8.94627 26.8946 8.83687 27.004C8.72747 27.1134 8.66602 27.2618 8.66602 27.4165C8.66602 27.5712 8.72747 27.7196 8.83687 27.829C8.94627 27.9384 9.09464 27.9998 9.24935 27.9998H10.416C11.1825 27.987 11.1831 26.846 10.416 26.8332ZM13.916 27.9998H29.0827C29.8445 27.9882 29.8533 26.8466 29.0827 26.8332H13.916C13.1542 26.8448 13.1454 27.9864 13.916 27.9998ZM37.2494 26.8332H32.5827C31.8174 26.8454 31.815 27.987 32.5827 27.9998H37.2494C38.0147 27.9876 38.017 26.846 37.2494 26.8332ZM10.416 30.3332H9.24935C8.48285 30.346 8.48227 31.487 9.24935 31.4998H10.416C11.1825 31.487 11.1831 30.346 10.416 30.3332ZM22.666 30.3332H13.916C13.7613 30.3332 13.6129 30.3946 13.5035 30.504C13.3941 30.6134 13.3327 30.7618 13.3327 30.9165C13.3327 31.0712 13.3941 31.2196 13.5035 31.329C13.6129 31.4384 13.7613 31.4998 13.916 31.4998H22.666C23.4302 31.4882 23.4348 30.346 22.666 30.3332ZM44.2494 30.3332H38.9994C38.234 30.3454 38.2311 31.487 38.9994 31.4998H44.2494C45.0147 31.4876 45.0176 30.346 44.2494 30.3332ZM35.4994 30.3332H26.166C25.4018 30.3448 25.3966 31.487 26.166 31.4998H35.4994C36.2635 31.4882 36.2688 30.346 35.4994 30.3332Z" fill="#FE9E78"/>
</svg>
