<svg width="56" height="57" viewBox="0 0 56 57" fill="none" xmlns="http://www.w3.org/2000/svg">
<path d="M28.0023 5.16675C40.8893 5.16675 51.3357 15.6131 51.3357 28.5001C51.3357 41.3871 40.8893 51.8334 28.0023 51.8334C23.8788 51.8405 19.8277 50.7492 16.2657 48.6717L4.67835 51.8334L7.83301 40.2414C5.75391 36.6783 4.66179 32.6255 4.66901 28.5001C4.66901 15.6131 15.1153 5.16675 28.0023 5.16675ZM20.0503 17.5334L19.5837 17.5521C19.282 17.5729 18.9872 17.6521 18.7157 17.7854C18.4627 17.9289 18.2317 18.1081 18.0297 18.3174C17.7497 18.5811 17.591 18.8097 17.4207 19.0314C16.5576 20.1535 16.0929 21.5311 16.1 22.9467C16.1047 24.0901 16.4033 25.2031 16.87 26.2437C17.8243 28.3484 19.3947 30.5767 21.4667 32.6417C21.966 33.1387 22.456 33.6381 22.9833 34.1024C25.558 36.369 28.626 38.0037 31.9433 38.8764L33.2687 39.0794C33.7003 39.1027 34.132 39.0701 34.566 39.0491C35.2454 39.0132 35.9088 38.8293 36.5097 38.5101C36.815 38.3522 37.1132 38.1809 37.4033 37.9967C37.4033 37.9967 37.5021 37.9299 37.695 37.7867C38.01 37.5534 38.2037 37.3877 38.465 37.1147C38.661 36.9125 38.8243 36.6776 38.955 36.4101C39.137 36.0297 39.319 35.3041 39.3937 34.6997C39.4497 34.2377 39.4333 33.9857 39.4263 33.8294C39.417 33.5797 39.2093 33.3207 38.983 33.2111L37.625 32.6021C37.625 32.6021 35.595 31.7177 34.3537 31.1531C34.2237 31.0965 34.0846 31.0641 33.943 31.0574C33.7833 31.0407 33.622 31.0585 33.4698 31.1097C33.3176 31.1608 33.1782 31.244 33.061 31.3537C33.0493 31.3491 32.893 31.4821 31.206 33.5261C31.1092 33.6562 30.9758 33.7545 30.8229 33.8085C30.67 33.8626 30.5044 33.8698 30.3473 33.8294C30.1953 33.7889 30.0463 33.7374 29.9017 33.6754C29.6123 33.5541 29.512 33.5074 29.3137 33.4234C27.9741 32.8399 26.734 32.0502 25.6387 31.0831C25.3447 30.8264 25.0717 30.5464 24.7917 30.2757C23.8738 29.3966 23.0738 28.402 22.4117 27.3171L22.274 27.0954C22.1766 26.9456 22.0968 26.7851 22.036 26.6171C21.9473 26.2741 22.1783 25.9987 22.1783 25.9987C22.1783 25.9987 22.7453 25.3781 23.009 25.0421C23.2657 24.7154 23.4827 24.3981 23.6227 24.1717C23.898 23.7284 23.9843 23.2734 23.8397 22.9211C23.1863 21.3251 22.5112 19.7376 21.8143 18.1587C21.6767 17.8461 21.2683 17.6221 20.8973 17.5777C20.7713 17.5622 20.6453 17.5497 20.5193 17.5404C20.206 17.5224 19.8919 17.5256 19.579 17.5497L20.0503 17.5334Z" fill="#37B908"/>
</svg>
