<svg width="56" height="56" viewBox="0 0 56 56" fill="none" xmlns="http://www.w3.org/2000/svg">
<path d="M35.3085 43.2401V44.5454H11.0935V9.75954H35.3085V19.7152C35.6259 19.5684 35.9718 19.4936 36.3215 19.4961H38.1374V5.2853C38.1374 3.55013 36.6781 2.05872 34.9025 2.05872H11.4912C10.6362 2.06089 9.81673 2.40153 9.2121 3.00616C8.60746 3.6108 8.26682 4.43023 8.26465 5.2853V50.7145C8.26552 51.57 8.60574 52.3901 9.21066 52.9951C9.81557 53.6 10.6358 53.9402 11.4912 53.9411H34.9025C35.7585 53.9393 36.579 53.5991 37.1851 52.9946C37.7911 52.3901 38.1334 51.5704 38.1374 50.7145V43.5646H36.5241C36.0971 43.5678 35.6771 43.4557 35.3085 43.2401ZM21.1381 5.09836H25.2557C25.7103 5.09836 26.0669 5.46319 26.0669 5.90954C26.0669 6.35589 25.7103 6.71989 25.2557 6.71989H21.1381C20.6917 6.71989 20.3269 6.35507 20.3269 5.90954C20.3269 5.46401 20.6917 5.09836 21.1381 5.09836ZM25.8799 50.3579H20.5138C20.4072 50.3584 20.3016 50.3379 20.2029 50.2973C20.1043 50.2568 20.0147 50.1972 19.9393 50.1218C19.8639 50.0465 19.8041 49.9569 19.7635 49.8584C19.7229 49.7598 19.7022 49.6541 19.7026 49.5475C19.7026 49.1012 20.0675 48.7364 20.5138 48.7364H25.8799C26.3345 48.7364 26.6911 49.1012 26.6911 49.5475C26.6921 49.6543 26.6718 49.7602 26.6314 49.859C26.591 49.9578 26.5312 50.0476 26.4557 50.123C26.3802 50.1985 26.2903 50.2581 26.1915 50.2985C26.0926 50.3388 25.9867 50.359 25.8799 50.3579Z" fill="#0458BF"/>
<path d="M28.2022 22.4845C28.2778 22.5594 28.3675 22.6187 28.466 22.659C28.5646 22.6993 28.6701 22.7197 28.7766 22.7192C28.883 22.7186 28.9883 22.6971 29.0865 22.6559C29.1846 22.6146 29.2737 22.5544 29.3486 22.4788L32.7366 19.0595C32.8871 18.9077 32.9716 18.7026 32.9716 18.4888C32.9716 18.275 32.8871 18.0698 32.7366 17.9181L29.3486 14.4988C29.1954 14.3553 28.9926 14.2767 28.7828 14.2796C28.5729 14.2825 28.3724 14.3666 28.2232 14.5142C28.0741 14.6619 27.988 14.8616 27.983 15.0714C27.978 15.2812 28.0545 15.4848 28.1964 15.6393L31.0195 18.4888L28.1964 21.3382C28.1215 21.4138 28.0622 21.5035 28.022 21.602C27.9817 21.7006 27.9613 21.8061 27.9618 21.9125C27.9623 22.019 27.9838 22.1243 28.0251 22.2225C28.0663 22.3206 28.1265 22.4096 28.2022 22.4845ZM18.1963 14.4938C18.1209 14.4186 18.0313 14.3591 17.9327 14.3187C17.8342 14.2782 17.7286 14.2576 17.6221 14.2581C17.5156 14.2585 17.4102 14.28 17.312 14.3213C17.2138 14.3626 17.1248 14.4229 17.05 14.4988L13.6628 17.9181C13.5122 18.0698 13.4277 18.275 13.4277 18.4888C13.4277 18.7026 13.5122 18.9077 13.6628 19.0595L17.05 22.4788C17.2012 22.6315 17.407 22.718 17.6219 22.7191C17.8369 22.7201 18.0435 22.6358 18.1963 22.4845C18.3491 22.3333 18.4355 22.1275 18.4366 21.9125C18.4377 21.6976 18.3533 21.491 18.2021 21.3382L15.3799 18.4888L18.2021 15.6393C18.277 15.5637 18.3363 15.4741 18.3766 15.3755C18.4168 15.277 18.4373 15.1714 18.4367 15.065C18.4362 14.9585 18.4147 14.8532 18.3734 14.7551C18.3322 14.6569 18.272 14.5687 18.1963 14.4938ZM24.5062 12.2028L19.7478 24.1769C19.7086 24.2758 19.6892 24.3816 19.6908 24.488C19.6924 24.5944 19.715 24.6995 19.7572 24.7973C19.7994 24.895 19.8604 24.9835 19.9368 25.0576C20.0132 25.1317 20.1035 25.1901 20.2024 25.2293C20.3014 25.2686 20.4071 25.288 20.5136 25.2864C20.62 25.2848 20.7251 25.2622 20.8228 25.22C20.9206 25.1778 21.009 25.1168 21.0831 25.0404C21.1573 24.964 21.2157 24.8737 21.2549 24.7748L26.0133 12.8006C26.0525 12.7017 26.0719 12.596 26.0703 12.4895C26.0687 12.3831 26.0462 12.278 26.0039 12.1803C25.9617 12.0825 25.9007 11.9941 25.8243 11.9199C25.7479 11.8458 25.6576 11.7874 25.5587 11.7482C25.4597 11.7089 25.354 11.6895 25.2476 11.6911C25.1411 11.6927 25.036 11.7153 24.9383 11.7575C24.8406 11.7997 24.7521 11.8608 24.678 11.9372C24.6038 12.0136 24.5455 12.1038 24.5062 12.2028ZM46.9795 29.6814L45.199 29.4804C45.0062 28.7176 44.6994 27.9883 44.289 27.317V27.3104L45.3423 25.8256C45.5811 25.4879 45.5433 25.0259 45.2501 24.7328L43.9744 23.4579C43.8267 23.31 43.6295 23.2218 43.4208 23.2101C43.212 23.1984 43.0063 23.2641 42.8429 23.3945L41.4462 24.5096C40.7687 24.1083 40.0347 23.8113 39.2688 23.6284L38.9657 21.8249C38.9326 21.6263 38.83 21.446 38.6763 21.316C38.5227 21.186 38.3278 21.1148 38.1266 21.115H36.3189C35.8857 21.115 35.5226 21.4403 35.474 21.8702L35.2722 23.6572C34.5108 23.8533 33.7822 24.1599 33.1096 24.5672L31.619 23.5082C31.4551 23.3917 31.2551 23.3371 31.0547 23.3541C30.8543 23.3712 30.6665 23.4587 30.5246 23.6012L29.2547 24.8752C28.95 25.1816 28.922 25.6675 29.1913 26.0051L30.3088 27.4101C29.9025 28.0858 29.603 28.8203 29.421 29.5875L27.6233 29.8905C27.214 29.9597 26.915 30.3138 26.915 30.7289V32.5308C26.915 32.9631 27.2395 33.3271 27.6686 33.3757L29.4424 33.5766C29.6434 34.3508 29.9514 35.0804 30.359 35.7466V35.7541L29.3082 37.2306C29.0677 37.5683 29.1064 38.0319 29.3988 38.3251L30.6753 39.6008C30.98 39.9055 31.4675 39.9335 31.8051 39.6642L33.2101 38.5475C33.8856 38.9474 34.617 39.2444 35.3801 39.4286L35.6831 41.2322C35.7523 41.6423 36.1064 41.9421 36.5215 41.9421H38.33C38.7623 41.9421 39.1263 41.6168 39.1749 41.1869L39.3758 39.3998C40.1397 39.2101 40.8695 38.9031 41.5393 38.4898L43.0298 39.5489C43.3675 39.7893 43.8311 39.7498 44.1243 39.4558L45.3942 38.181C45.6989 37.8755 45.7269 37.3904 45.4576 37.0519L44.3458 35.6536C44.7459 34.9731 45.0428 34.2371 45.227 33.4696L47.0248 33.1665C47.4341 33.0973 47.7338 32.7432 47.7338 32.3282V30.5263C47.7338 30.0939 47.4094 29.7299 46.9795 29.6814ZM37.3277 35.0236C36.4008 35.0236 35.5118 34.6554 34.8564 33.9999C34.2009 33.3445 33.8327 32.4555 33.8327 31.5285C33.834 30.602 34.2026 29.7138 34.8578 29.0586C35.513 28.4034 36.4012 28.0348 37.3277 28.0335C38.2535 28.035 39.1409 28.4039 39.7948 29.0593C40.4487 29.7146 40.8158 30.6027 40.8154 31.5285C40.8161 31.9871 40.7265 32.4413 40.5516 32.8652C40.3767 33.2891 40.1199 33.6744 39.796 33.999C39.4721 34.3236 39.0874 34.5811 38.6639 34.757C38.2403 34.9328 37.7863 35.0234 37.3277 35.0236Z" fill="#0458BF"/>
</svg>
