<svg width="35" height="32" viewBox="0 0 35 32" fill="none" xmlns="http://www.w3.org/2000/svg">
<path d="M3.33301 26.6667C3.99605 26.6667 4.63193 26.9301 5.10077 27.3989C5.56962 27.8677 5.83301 28.5036 5.83301 29.1667C5.83301 29.8297 5.56962 30.4656 5.10077 30.9344C4.63193 31.4033 3.99605 31.6667 3.33301 31.6667C2.66997 31.6667 2.03408 31.4033 1.56524 30.9344C1.0964 30.4656 0.833008 29.8297 0.833008 29.1667C0.833008 28.5036 1.0964 27.8677 1.56524 27.3989C2.03408 26.9301 2.66997 26.6667 3.33301 26.6667ZM11.6663 21.6667C12.7714 21.6667 13.8312 22.1057 14.6126 22.8871C15.394 23.6685 15.833 24.7283 15.833 25.8333C15.833 26.9384 15.394 27.9982 14.6126 28.7796C13.8312 29.561 12.7714 30 11.6663 30C10.5613 30 9.50146 29.561 8.72006 28.7796C7.93866 27.9982 7.49967 26.9384 7.49967 25.8333C7.49967 24.7283 7.93866 23.6685 8.72006 22.8871C9.50146 22.1057 10.5613 21.6667 11.6663 21.6667ZM21.6663 20C19.683 20 17.883 19.1667 16.6663 17.75C15.4497 19.1667 13.6497 20 11.6663 20C8.39967 20 5.68301 17.65 5.11634 14.5667C3.85767 14.0799 2.77533 13.2244 2.01105 12.1122C1.24676 10.9999 0.83616 9.68284 0.833008 8.33333C0.833008 6.56522 1.53539 4.86953 2.78563 3.61929C4.03587 2.36905 5.73156 1.66667 7.49967 1.66667C7.93301 1.66667 8.33301 1.71667 8.78301 1.78333C9.99967 0.683334 11.583 0 13.333 0C15.3163 0 17.1163 0.833333 18.333 2.25C19.5497 0.833333 21.3497 0 23.333 0C26.5997 0 29.3163 2.35 29.883 5.43333C31.1417 5.92009 32.224 6.7756 32.9883 7.88783C33.7526 9.00006 34.1632 10.3172 34.1663 11.6667C34.1663 13.4348 33.464 15.1305 32.2137 16.3807C30.9635 17.631 29.2678 18.3333 27.4997 18.3333L26.2163 18.2167C24.9997 19.3167 23.4163 20 21.6663 20Z" fill="#7994CA"/>
</svg>
