<svg width="41" height="32" viewBox="0 0 41 32" fill="none" xmlns="http://www.w3.org/2000/svg">
<path d="M16.4394 16.3531C16.83 16.7437 17.4631 16.7437 17.8538 16.3531L18.5606 15.6462C18.9513 15.2556 18.9513 14.6225 18.5606 14.2319L16.3281 12L18.56 9.7675C18.9506 9.37687 18.9506 8.74375 18.56 8.35312L17.8531 7.64625C17.4625 7.25562 16.8294 7.25562 16.4388 7.64625L12.7925 11.2925C12.4019 11.6831 12.4019 12.3162 12.7925 12.7069L16.4394 16.3531ZM22.44 15.6469L23.1469 16.3538C23.5375 16.7444 24.1706 16.7444 24.5613 16.3538L28.2075 12.7075C28.5981 12.3169 28.5981 11.6838 28.2075 11.2931L24.5613 7.64687C24.1706 7.25625 23.5375 7.25625 23.1469 7.64687L22.44 8.35375C22.0494 8.74438 22.0494 9.3775 22.44 9.76812L24.6719 12L22.44 14.2325C22.0494 14.6231 22.0494 15.2563 22.44 15.6469ZM39.5 26H24.3463C24.3 27.2381 23.4269 28 22.3 28H18.5C17.3319 28 16.4362 26.9081 16.4519 26H1.5C0.95 26 0.5 26.45 0.5 27V28C0.5 30.2 2.3 32 4.5 32H36.5C38.7 32 40.5 30.2 40.5 28V27C40.5 26.45 40.05 26 39.5 26ZM36.5 3C36.5 1.35 35.15 0 33.5 0H7.5C5.85 0 4.5 1.35 4.5 3V24H36.5V3ZM32.5 20H8.5V4H32.5V20Z" fill="#7994CA"/>
</svg>
