<svg width="35" height="34" viewBox="0 0 35 34" fill="none" xmlns="http://www.w3.org/2000/svg">
<path d="M17.4997 33.6666C15.2219 33.6666 13.0691 33.2288 11.0413 32.3533C9.01356 31.4777 7.24301 30.2833 5.72967 28.7699C4.21634 27.2566 3.0219 25.486 2.14634 23.4583C1.27079 21.4305 0.833008 19.2777 0.833008 16.9999C0.833008 14.6944 1.28467 12.5277 2.18801 10.4999C3.09134 8.47214 4.31356 6.70825 5.85467 5.20825C7.39579 3.70825 9.19412 2.52103 11.2497 1.64659C13.3052 0.772141 15.4997 0.334363 17.833 0.333252C20.0552 0.333252 22.1525 0.715474 24.1247 1.47992C26.0969 2.24436 27.8263 3.29992 29.313 4.64658C30.7997 5.99325 31.9802 7.59047 32.8547 9.43825C33.7291 11.286 34.1663 13.2788 34.1663 15.4166C34.1663 18.611 33.1941 21.0627 31.2497 22.7716C29.3052 24.4805 26.9441 25.3344 24.1663 25.3333H21.083C20.833 25.3333 20.6597 25.4027 20.563 25.5416C20.4663 25.6805 20.4175 25.8333 20.4163 25.9999C20.4163 26.3333 20.6247 26.8127 21.0413 27.4383C21.458 28.0638 21.6663 28.7788 21.6663 29.5833C21.6663 30.9721 21.2847 31.9999 20.5213 32.6666C19.758 33.3333 18.7508 33.6666 17.4997 33.6666ZM8.33301 18.6666C9.05523 18.6666 9.65245 18.4305 10.1247 17.9583C10.5969 17.486 10.833 16.8888 10.833 16.1666C10.833 15.4444 10.5969 14.8471 10.1247 14.3749C9.65245 13.9027 9.05523 13.6666 8.33301 13.6666C7.61079 13.6666 7.01356 13.9027 6.54134 14.3749C6.06912 14.8471 5.83301 15.4444 5.83301 16.1666C5.83301 16.8888 6.06912 17.486 6.54134 17.9583C7.01356 18.4305 7.61079 18.6666 8.33301 18.6666ZM13.333 11.9999C14.0552 11.9999 14.6525 11.7638 15.1247 11.2916C15.5969 10.8194 15.833 10.2221 15.833 9.49992C15.833 8.7777 15.5969 8.18047 15.1247 7.70825C14.6525 7.23603 14.0552 6.99992 13.333 6.99992C12.6108 6.99992 12.0136 7.23603 11.5413 7.70825C11.0691 8.18047 10.833 8.7777 10.833 9.49992C10.833 10.2221 11.0691 10.8194 11.5413 11.2916C12.0136 11.7638 12.6108 11.9999 13.333 11.9999ZM21.6663 11.9999C22.3886 11.9999 22.9858 11.7638 23.458 11.2916C23.9302 10.8194 24.1663 10.2221 24.1663 9.49992C24.1663 8.7777 23.9302 8.18047 23.458 7.70825C22.9858 7.23603 22.3886 6.99992 21.6663 6.99992C20.9441 6.99992 20.3469 7.23603 19.8747 7.70825C19.4025 8.18047 19.1663 8.7777 19.1663 9.49992C19.1663 10.2221 19.4025 10.8194 19.8747 11.2916C20.3469 11.7638 20.9441 11.9999 21.6663 11.9999ZM26.6663 18.6666C27.3886 18.6666 27.9858 18.4305 28.458 17.9583C28.9302 17.486 29.1663 16.8888 29.1663 16.1666C29.1663 15.4444 28.9302 14.8471 28.458 14.3749C27.9858 13.9027 27.3886 13.6666 26.6663 13.6666C25.9441 13.6666 25.3469 13.9027 24.8747 14.3749C24.4025 14.8471 24.1663 15.4444 24.1663 16.1666C24.1663 16.8888 24.4025 17.486 24.8747 17.9583C25.3469 18.4305 25.9441 18.6666 26.6663 18.6666Z" fill="#7994CA"/>
</svg>
