<svg width="75" height="40" viewBox="0 0 75 40" fill="none" xmlns="http://www.w3.org/2000/svg">
<g clip-path="url(#clip0_282_516)">
<mask id="mask0_282_516" style="mask-type:luminance" maskUnits="userSpaceOnUse" x="1" y="1" width="73" height="38">
<path d="M1.05469 19.9998C1.05469 30.4695 17.3722 38.957 37.5001 38.957C57.6279 38.957 73.9456 30.4695 73.9456 19.9998C73.9456 9.53022 57.6279 1.04255 37.5001 1.04255C17.3722 1.04255 1.05469 9.53022 1.05469 19.9998Z" fill="white"/>
</mask>
<g mask="url(#mask0_282_516)">
<path d="M1.05469 19.9998C1.05469 30.4695 17.3722 38.957 37.5001 38.957C57.6279 38.957 73.9456 30.4695 73.9456 19.9998C73.9456 9.53022 57.6279 1.04255 37.5001 1.04255C17.3722 1.04255 1.05469 9.53022 1.05469 19.9998Z" fill="url(#paint0_radial_282_516)"/>
</g>
<mask id="mask1_282_516" style="mask-type:luminance" maskUnits="userSpaceOnUse" x="-1" y="-2" width="77" height="44">
<path d="M-0.463867 -1.11604H75.464V41.1157H-0.463867V-1.11604Z" fill="white"/>
</mask>
<g mask="url(#mask1_282_516)">
<path d="M37.5003 37.5493C56.842 37.5493 72.522 29.692 72.522 19.9995C72.522 10.3072 56.842 2.44976 37.5003 2.44976C18.1585 2.44976 2.47852 10.3072 2.47852 19.9995C2.47852 29.692 18.1585 37.5493 37.5003 37.5493Z" fill="#777BB3"/>
</g>
<mask id="mask2_282_516" style="mask-type:luminance" maskUnits="userSpaceOnUse" x="-1" y="-2" width="77" height="44">
<path d="M-0.463867 -1.11604H75.464V41.1157H-0.463867V-1.11604Z" fill="white"/>
</mask>
<g mask="url(#mask2_282_516)">
<path d="M20.8557 22.1762C22.4461 22.1762 23.6334 21.8862 24.3847 21.3145C25.1279 20.7487 25.6412 19.7683 25.9102 18.4009C26.1611 17.1227 26.0655 16.2303 25.6263 15.7486C25.1772 15.2567 24.2062 15.0072 22.7403 15.0072H20.1987L18.7897 22.1762H20.8557ZM12.5428 31.0071C12.4248 31.0071 12.3128 30.9549 12.2378 30.8647C12.1626 30.7747 12.1322 30.6561 12.1547 30.5415L15.8889 11.5436C15.925 11.3599 16.0878 11.2272 16.2771 11.2272H24.3252C26.8546 11.2272 28.7372 11.9063 29.9205 13.2459C31.1102 14.5925 31.4776 16.4748 31.0124 18.8404C30.8231 19.8042 30.4975 20.6993 30.0447 21.5006C29.5914 22.3029 28.9923 23.0452 28.2637 23.7074C27.3916 24.5145 26.4045 25.0997 25.3326 25.4441C24.2776 25.7839 22.9228 25.9562 21.3058 25.9562H18.0469L17.1163 30.6906C17.0802 30.8744 16.9175 31.0071 16.7282 31.0071H12.5428Z" fill="black"/>
<path d="M20.5247 15.3979H22.7403C24.5095 15.3979 25.124 15.7817 25.3328 16.0105C25.6792 16.3903 25.7446 17.1911 25.522 18.3263C25.2718 19.5972 24.808 20.4983 24.1434 21.0043C23.463 21.5223 22.3567 21.7848 20.8557 21.7848H19.2694L20.5247 15.3979ZM24.3252 10.8358H16.277C15.8984 10.8358 15.5729 11.1012 15.5007 11.4686L11.7665 30.4665C11.7214 30.6958 11.7823 30.9329 11.9325 31.1132C12.0827 31.2934 12.3066 31.3977 12.5428 31.3977H16.728C17.1068 31.3977 17.4322 31.1323 17.5045 30.7649L18.3729 26.3468H21.3057C22.9643 26.3468 24.3605 26.168 25.4553 25.8154C26.5811 25.4537 27.617 24.8404 28.5338 23.9927C29.292 23.3029 29.9166 22.5286 30.3898 21.6912C30.8632 20.8535 31.2032 19.9193 31.4006 18.9146C31.8903 16.4245 31.4925 14.4304 30.2183 12.9883C28.9565 11.56 26.9737 10.8358 24.3252 10.8358ZM18.3099 22.5668H20.8557C22.5431 22.5668 23.8 22.2526 24.6259 21.6239C25.4518 20.9951 26.0089 19.9457 26.2984 18.4752C26.5753 17.0633 26.4492 16.0669 25.9199 15.4865C25.39 14.9061 24.3303 14.6158 22.7403 14.6158H19.8727L18.3099 22.5668ZM24.3252 11.6179C26.7463 11.6179 28.5126 12.2461 29.6227 13.5028C30.7328 14.7594 31.0671 16.5135 30.6242 18.7655C30.4419 19.6931 30.1335 20.5413 29.6995 21.3097C29.2648 22.0786 28.6974 22.7816 27.9961 23.4192C27.1604 24.1925 26.2319 24.7436 25.2104 25.0718C24.1888 25.4009 22.8876 25.5648 21.3057 25.5648H17.7208L16.728 30.6156H12.5428L16.277 11.6179H24.3252Z" fill="white"/>
<path d="M40.6093 25.9556C40.4912 25.9556 40.3792 25.9034 40.3042 25.8132C40.229 25.7232 40.1985 25.6047 40.2211 25.49L41.8729 17.0842C42.03 16.2848 41.9913 15.711 41.7639 15.4685C41.6247 15.3203 41.2065 15.0718 39.9702 15.0718H36.9777L34.9008 25.6391C34.8647 25.8229 34.7019 25.9556 34.5126 25.9556H30.3603C30.2422 25.9556 30.1303 25.9034 30.0552 25.8132C29.98 25.7232 29.9496 25.6045 29.9721 25.49L33.7063 6.49207C33.7424 6.30841 33.9052 6.17572 34.0945 6.17572H38.2468C38.3649 6.17572 38.4768 6.22786 38.552 6.31793C38.6271 6.40812 38.6576 6.52661 38.635 6.64131L37.7339 11.2266H40.9532C43.4057 11.2266 45.0687 11.6541 46.0373 12.5337C47.0246 13.431 47.3327 14.8657 46.9531 16.7984L45.2157 25.6391C45.1796 25.8229 45.0169 25.9556 44.8275 25.9556H40.6093Z" fill="black"/>
<path d="M38.2468 5.785H34.0945C33.7158 5.785 33.3903 6.05039 33.3181 6.41783L29.5839 25.4157C29.5388 25.645 29.5997 25.8821 29.75 26.0624C29.9002 26.2426 30.1241 26.3469 30.3603 26.3469H34.5126C34.8912 26.3469 35.2168 26.0815 35.289 25.7141L37.3036 15.4631H39.9702C41.2044 15.4631 41.4634 15.7238 41.4738 15.735C41.5487 15.8147 41.6472 16.1835 41.4847 17.0099L39.8328 25.4157C39.7877 25.645 39.8486 25.8821 39.9989 26.0624C40.1492 26.2426 40.373 26.3469 40.6092 26.3469H44.8275C45.206 26.3469 45.5316 26.0815 45.6039 25.7141L47.3411 16.8735C47.7488 14.7982 47.4 13.2415 46.3049 12.2462C45.2598 11.2972 43.5093 10.8359 40.9532 10.8359H38.2134L39.0232 6.71632C39.0681 6.48704 39.0074 6.24981 38.8571 6.06968C38.7068 5.88941 38.483 5.785 38.2468 5.785ZM38.2468 6.56707L37.254 11.6179H40.9532C43.2807 11.6179 44.8861 12.0197 45.7697 12.8221C46.6533 13.625 46.918 14.926 46.5648 16.7243L44.8275 25.5649H40.6092L42.2611 17.1592C42.449 16.203 42.38 15.5507 42.0536 15.2029C41.7271 14.8552 41.0325 14.681 39.9702 14.681H36.6515L34.5126 25.5649H30.3603L34.0945 6.56707H38.2468Z" fill="white"/>
<path d="M53.5227 22.1762C55.1131 22.1762 56.3004 21.8862 57.0516 21.3145C57.7948 20.7488 58.3081 19.7685 58.5773 18.4009C58.8282 17.1227 58.7326 16.2303 58.2932 15.7486C57.8441 15.2567 56.8732 15.0072 55.4073 15.0072H52.8657L51.4567 22.1762H53.5227ZM45.2099 31.0071C45.0919 31.0071 44.9799 30.9549 44.9049 30.8647C44.8298 30.7747 44.7992 30.6561 44.8217 30.5415L48.5559 11.5436C48.5921 11.3599 48.7548 11.2272 48.9442 11.2272H56.9922C59.5217 11.2272 61.4042 11.9063 62.5876 13.2459C63.7773 14.5923 64.1446 16.4747 63.6795 18.8404C63.49 19.8042 63.1645 20.6993 62.7117 21.5006C62.2584 22.3029 61.6592 23.0452 60.9307 23.7074C60.0586 24.5145 59.0715 25.0997 57.9995 25.4441C56.9446 25.7839 55.5898 25.9562 53.9727 25.9562H50.7138L49.7835 30.6906C49.7473 30.8744 49.5846 31.0071 49.3952 31.0071H45.2099Z" fill="black"/>
<path d="M53.1916 15.3979H55.4072C57.1763 15.3979 57.7909 15.7817 57.9997 16.0105C58.3462 16.3903 58.4116 17.1911 58.1888 18.3262C57.9386 19.5972 57.4748 20.4983 56.8103 21.0043C56.1298 21.5223 55.0236 21.7848 53.5226 21.7848H51.9364L53.1916 15.3979ZM56.992 10.8358H48.944C48.5654 10.8358 48.2399 11.1012 48.1677 11.4686L44.4335 30.4665C44.3884 30.6958 44.4493 30.9329 44.5995 31.1132C44.7497 31.2934 44.9736 31.3977 45.2098 31.3977H49.395C49.7736 31.3977 50.0992 31.1323 50.1715 30.7649L51.0397 26.3468H53.9726C55.6311 26.3468 57.0274 26.168 58.1221 25.8154C59.248 25.4537 60.2841 24.8403 61.2009 23.9924C61.9591 23.3028 62.5834 22.5286 63.0567 21.6912C63.53 20.8535 63.8701 19.9193 64.0674 18.9146C64.5571 16.4243 64.1593 14.4303 62.8852 12.9882C61.6234 11.56 59.6407 10.8358 56.992 10.8358ZM50.9769 22.5668H53.5226C55.21 22.5668 56.4669 22.2526 57.2927 21.6239C58.1188 20.9951 58.6758 19.9457 58.9652 18.4752C59.2423 17.0633 59.1162 16.0669 58.5868 15.4865C58.0569 14.9061 56.9972 14.6158 55.4072 14.6158H52.5396L50.9769 22.5668ZM56.992 11.6179C59.4132 11.6179 61.1794 12.2461 62.2896 13.5028C63.3998 14.7594 63.7339 16.5135 63.291 18.7655C63.1087 19.6931 62.8004 20.5413 62.3663 21.3097C61.9317 22.0786 61.3642 22.7816 60.6629 23.4192C59.8272 24.1925 58.8988 24.7436 57.8772 25.0718C56.8556 25.4009 55.5544 25.5648 53.9726 25.5648H50.3876L49.395 30.6156H45.2098L48.944 11.6179H56.992Z" fill="white"/>
</g>
</g>
<defs>
<radialGradient id="paint0_radial_282_516" cx="0" cy="0" r="1" gradientUnits="userSpaceOnUse" gradientTransform="translate(22.9367 7.70733) scale(47.858 47.3228)">
<stop stop-color="#AEB2D5"/>
<stop offset="0.3" stop-color="#AEB2D5"/>
<stop offset="0.75" stop-color="#484C89"/>
<stop offset="1" stop-color="#484C89"/>
</radialGradient>
<clipPath id="clip0_282_516">
<rect width="75" height="40" fill="white"/>
</clipPath>
</defs>
</svg>
