<svg width="82" height="56" viewBox="0 0 82 56" fill="none" xmlns="http://www.w3.org/2000/svg">
<path fill-rule="evenodd" clip-rule="evenodd" d="M34.4947 6.24529C37.1118 3.5655 40.7543 1.90603 44.7784 1.90603C50.1437 1.90603 54.7937 4.83796 57.2976 9.20655C59.5201 8.22926 61.9275 7.72471 64.362 7.72592C74.0197 7.72592 81.8591 15.4956 81.8591 25.083C81.8591 34.6704 74.0197 42.4401 64.362 42.4401C63.1816 42.4401 62.0311 42.3234 60.9043 42.1029C58.7135 45.9437 54.5255 48.5531 49.7562 48.5531C47.8145 48.5569 45.8977 48.1237 44.1524 47.2865C41.9317 52.4174 36.7601 56.0237 30.7389 56.0237C24.4495 56.0237 19.1139 52.1242 17.0572 46.6415C16.1418 46.8315 15.2087 46.9271 14.2732 46.9265C6.79144 46.9265 0.740479 40.8867 0.740479 33.4689C0.740479 28.4846 3.4649 24.1454 7.50682 21.7998C6.64933 19.8568 6.20794 17.7609 6.21019 15.6427C6.21019 7.08148 13.2746 0.162109 21.9785 0.162109C27.0756 0.162109 31.6361 2.55164 34.4977 6.26054" fill="#00A1E0"/>
</svg>
