<svg width="24" height="15" viewBox="0 0 24 15" fill="none" xmlns="http://www.w3.org/2000/svg">
<path fill-rule="evenodd" clip-rule="evenodd" d="M23.1603 0.804822C23.0077 0.759479 22.8525 0.723254 22.6956 0.696342C22.4844 0.661673 22.2705 0.645387 22.0565 0.647672C21.2061 0.647672 20.5357 0.883987 20.065 1.35075C19.5976 1.814 19.2796 2.51971 19.1201 3.44826L19.0626 3.76168H17.9952C17.9952 3.76168 17.8649 3.75641 17.8375 3.89626L17.6622 4.85793C17.65 4.95 17.6902 5.00746 17.8154 5.00687H18.8545L17.8002 10.7954C17.7177 11.2616 17.6232 11.6451 17.5186 11.9356C17.4154 12.2224 17.3147 12.4373 17.1907 12.5933C17.0705 12.7443 16.9567 12.8554 16.7602 12.9202C16.5981 12.9738 16.4115 12.9985 16.207 12.9985C16.0931 12.9985 15.9417 12.9797 15.8299 12.9577C15.7182 12.936 15.66 12.9114 15.5763 12.8768C15.5763 12.8768 15.4544 12.831 15.4064 12.9513C15.3673 13.0495 15.0904 13.7986 15.0576 13.8912C15.0242 13.9827 15.071 14.0548 15.1301 14.0756C15.2684 14.1243 15.3712 14.1554 15.5596 14.1991C15.8213 14.2598 16.0419 14.2636 16.2484 14.2636C16.6813 14.2636 17.0756 14.2038 17.4026 14.0877C17.7317 13.9707 18.0181 13.7669 18.2715 13.491C18.5454 13.1934 18.7177 12.8818 18.8826 12.4566C19.0456 12.0353 19.1845 11.5123 19.2957 10.9027L20.355 5.00687H21.9039C21.9039 5.00687 22.0344 5.01157 22.0615 4.8723L22.2368 3.91062C22.249 3.81856 22.2091 3.7611 22.0833 3.76168H20.5801C20.5876 3.72826 20.6558 3.20813 20.8284 2.7185C20.902 2.50945 21.0406 2.34086 21.1581 2.22505C21.2677 2.11475 21.4028 2.03208 21.5518 1.98405C21.7152 1.93437 21.8855 1.91023 22.0565 1.91251C22.1981 1.91251 22.337 1.92922 22.4428 1.95092C22.5885 1.98141 22.6452 1.99754 22.6833 2.00868C22.8365 2.05471 22.8571 2.01014 22.8872 1.93714L23.2467 0.96608C23.2837 0.861703 23.1936 0.817723 23.1603 0.804822ZM2.15358 10.8077C2.15358 10.8851 2.09754 10.9482 2.01885 10.9482H0.771993C0.693002 10.9482 0.636963 10.8851 0.636963 10.8077V0.936468C0.636963 0.859358 0.693002 0.796908 0.771993 0.796908H2.01885C2.09754 0.796908 2.15358 0.859358 2.15358 0.936468V10.8077Z" fill="#FFFFFE"/>
</svg>
