<svg width="81" height="109" viewBox="0 0 81 109" fill="none" xmlns="http://www.w3.org/2000/svg">
<path fill-rule="evenodd" clip-rule="evenodd" d="M39.7573 1.71798C29.1051 4.73082 22.9119 15.8087 25.9246 26.461L30.016 40.9267L15.5507 45.018C4.89836 48.0307 -1.29473 59.1087 1.71802 69.761C4.73081 80.4134 15.8087 86.6065 26.4611 83.5938L40.9263 79.5024L45.0179 93.9686C48.0306 104.621 59.1085 110.814 69.7609 107.801C80.4133 104.789 86.6064 93.7107 83.5936 83.0583L79.5021 68.5921L93.9687 64.5006C104.621 61.4878 110.814 50.4099 107.801 39.7575C104.789 29.1051 93.7107 22.912 83.0583 25.9248L68.5917 30.0163L64.5004 15.5507C61.4877 4.89833 50.4097 -1.29477 39.7573 1.71798Z" fill="url(#paint0_linear_409_13205)"/>
<defs>
<linearGradient id="paint0_linear_409_13205" x1="39.7581" y1="1.71796" x2="69.7614" y2="107.801" gradientUnits="userSpaceOnUse">
<stop stop-color="#BCBCE0"/>
<stop offset="1" stop-color="#F7E9E9" stop-opacity="0.5"/>
</linearGradient>
</defs>
</svg>
