<svg width="179" height="260" viewBox="0 0 179 260" fill="none" xmlns="http://www.w3.org/2000/svg">
<g clip-path="url(#clip0_409_13198)">
<path opacity="0.1" d="M46.2555 198.246L46.2556 198.245C53.8124 187.038 50.8533 171.827 39.6462 164.27L-112.953 61.3743C-124.16 53.8175 -139.371 56.7766 -146.928 67.9837L-146.928 67.9839C-154.485 79.1911 -151.526 94.4023 -140.319 101.959L12.2802 204.855C23.4874 212.412 38.6986 209.453 46.2555 198.246Z" fill="#807FAF"/>
<path opacity="0.1" d="M140.212 189.437L140.212 189.437C147.768 178.23 144.809 163.018 133.602 155.462L-18.9968 52.5656C-30.204 45.0087 -45.4152 47.9679 -52.9721 59.175L-52.9722 59.1752C-60.5291 70.3824 -57.5699 85.5936 -46.3628 93.1505L106.236 196.046C117.443 203.603 132.655 200.644 140.212 189.437Z" fill="#807FAF"/>
<path opacity="0.1" d="M146.036 122.015L146.036 122.014C153.593 110.807 150.634 95.5961 139.426 88.0393L-13.1726 -14.8566C-24.3798 -22.4135 -39.591 -19.4544 -47.1479 -8.24722L-47.148 -8.24701C-54.7049 2.96013 -51.7457 18.1714 -40.5386 25.7282L112.06 128.624C123.268 136.181 138.479 133.222 146.036 122.015Z" fill="#807FAF"/>
</g>
<defs>
<clipPath id="clip0_409_13198">
<rect width="264.568" height="312" fill="white" transform="translate(128.258 -60) rotate(78.9914)"/>
</clipPath>
</defs>
</svg>
