<svg width="40" height="40" viewBox="0 0 40 40" fill="none" xmlns="http://www.w3.org/2000/svg">
<path d="M28.333 30H11.6663V9.99996H28.333V11.6666H31.6663V4.99996C31.6663 3.16663 30.1663 1.66663 28.333 1.66663H11.6663C9.83301 1.66663 8.33301 3.16663 8.33301 4.99996V35C8.33301 36.8333 9.83301 38.3333 11.6663 38.3333H28.333C30.1663 38.3333 31.6663 36.8333 31.6663 35V28.3333H28.333V30ZM33.9663 16.0333L34.633 17.4833C34.783 17.8166 35.2497 17.8166 35.3997 17.4833L36.0663 16.0333L37.5163 15.3666C37.8497 15.2166 37.8497 14.75 37.5163 14.6L36.0663 13.9333L35.3997 12.4833C35.2497 12.15 34.783 12.15 34.633 12.4833L33.9663 13.9333L32.5163 14.6C32.183 14.75 32.183 15.2166 32.5163 15.3666L33.9663 16.0333Z" fill="#7994CA"/>
<path d="M25.8999 15L24.5832 17.9166L21.6665 19.2333C21.521 19.2996 21.3977 19.4063 21.3112 19.5408C21.2247 19.6753 21.1787 19.8318 21.1787 19.9916C21.1787 20.1515 21.2247 20.308 21.3112 20.4425C21.3977 20.577 21.521 20.6837 21.6665 20.75L24.5832 22.0666L25.8999 25C25.9662 25.1455 26.0729 25.2688 26.2074 25.3553C26.3418 25.4418 26.4983 25.4878 26.6582 25.4878C26.8181 25.4878 26.9746 25.4418 27.109 25.3553C27.2435 25.2688 27.3503 25.1455 27.4165 25L28.7332 22.0833L31.6665 20.7666C31.812 20.7004 31.9354 20.5936 32.0219 20.4592C32.1084 20.3247 32.1544 20.1682 32.1544 20.0083C32.1544 19.8484 32.1084 19.6919 32.0219 19.5575C31.9354 19.423 31.812 19.3163 31.6665 19.25L28.7499 17.9333L27.4332 15C27.3649 14.8543 27.2566 14.7311 27.1208 14.6447C26.985 14.5584 26.8274 14.5126 26.6665 14.5126C26.5056 14.5126 26.3481 14.5584 26.2123 14.6447C26.0765 14.7311 25.9681 14.8543 25.8999 15ZM34.6165 22.5L33.9499 23.95L32.4999 24.6166C32.1665 24.7666 32.1665 25.2333 32.4999 25.3833L33.9499 26.05L34.6165 27.5C34.7665 27.8333 35.2332 27.8333 35.3832 27.5L36.0499 26.05L37.4999 25.3833C37.8332 25.2333 37.8332 24.7666 37.4999 24.6166L36.0499 23.95L35.3832 22.5C35.3477 22.4287 35.293 22.3688 35.2253 22.3269C35.1576 22.285 35.0795 22.2628 34.9999 22.2628C34.9202 22.2628 34.8422 22.285 34.7745 22.3269C34.7068 22.3688 34.6521 22.4287 34.6165 22.5Z" fill="#7994CA"/>
</svg>
