<svg width="40" height="40" viewBox="0 0 40 40" fill="none" xmlns="http://www.w3.org/2000/svg">
<path d="M17.381 25.4314L17.3724 25.4114C17.2 25.3707 17.0285 25.3259 16.8582 25.2771L16.8453 25.2729C15.2157 24.8044 13.7108 23.9792 12.4396 22.8571C11.0416 21.6239 9.96646 20.0673 9.30802 18.3233C8.64958 16.5792 8.42778 14.7005 8.66198 12.851C8.89617 11.0015 9.57924 9.23744 10.6516 7.71253C11.724 6.18761 13.1532 4.94818 14.8145 4.10231C16.4758 3.25644 18.3187 2.82981 20.1828 2.85962C22.0468 2.88942 23.8752 3.37477 25.5086 4.27333C27.142 5.17189 28.5307 6.45638 29.5538 8.01481C30.5769 9.57324 31.2032 11.3583 31.3782 13.2143C31.4339 13.8043 30.9496 14.2857 30.3567 14.2857C29.7653 14.2857 29.2924 13.8043 29.2239 13.2157C29.035 11.5919 28.4208 10.0466 27.4433 8.73623C26.4658 7.42585 25.1597 6.39675 23.6569 5.75298C22.1542 5.10921 20.5082 4.87357 18.8852 5.0699C17.2622 5.26623 15.7198 5.88756 14.4139 6.87108C13.1081 7.8546 12.085 9.16545 11.4481 10.6711C10.8113 12.1768 10.5832 13.8239 10.787 15.446C10.9908 17.068 11.6193 18.6075 12.6088 19.9089C13.5983 21.2102 14.9139 22.2272 16.4224 22.8571L16.4796 22.8814C16.7653 22.9986 17.0586 23.1019 17.3596 23.1914C17.6124 22.5804 18.0694 22.0761 18.6525 21.7643C19.2357 21.4526 19.9089 21.3527 20.5574 21.4818C21.2059 21.6109 21.7896 21.961 22.2089 22.4723C22.6282 22.9836 22.8571 23.6245 22.8567 24.2857C22.8574 24.9423 22.6318 25.5792 22.218 26.089C21.8042 26.5988 21.2274 26.9506 20.5847 27.0851C19.942 27.2195 19.2726 27.1285 18.6891 26.8274C18.1056 26.5262 17.6437 26.0332 17.381 25.4314ZM15.9724 27.2486C13.4346 26.4593 11.1844 24.9423 9.50101 22.8857C8.45774 23.0079 7.49568 23.509 6.79753 24.2938C6.09937 25.0786 5.71374 26.0925 5.71387 27.1429V28.1643C5.71387 33.4757 11.7282 37.1429 19.9996 37.1429C28.271 37.1429 34.2853 33.2743 34.2853 28.1643V27.1429C34.2853 26.0062 33.8338 24.9161 33.03 24.1124C32.2263 23.3087 31.1362 22.8571 29.9996 22.8571H24.7924C25.1294 23.9858 25.0571 25.1971 24.5884 26.2777C24.1196 27.3582 23.2843 28.2386 22.23 28.7635C21.1756 29.2885 19.9697 29.4244 18.8249 29.1472C17.6801 28.8701 16.6699 28.1977 15.9724 27.2486ZM27.1424 14.2857C27.1424 12.1257 26.1853 10.19 24.6696 8.88001C23.9091 8.22395 23.0188 7.73566 22.0568 7.447C21.0948 7.15835 20.0827 7.07582 19.0866 7.2048C18.0906 7.33378 17.1329 7.67137 16.2762 8.19554C15.4194 8.71971 14.6828 9.41867 14.1145 10.2468C13.5462 11.0749 13.1589 12.0136 12.978 13.0015C12.797 13.9895 12.8264 15.0045 13.0643 15.9803C13.3022 16.9561 13.7432 17.8707 14.3585 18.6645C14.9738 19.4584 15.7496 20.1135 16.6353 20.5871C17.5557 19.7498 18.7553 19.2858 19.9996 19.2857C21.2444 19.2854 22.4445 19.7495 23.3653 20.5871C24.5066 19.9774 25.4609 19.0691 26.1261 17.9593C26.7914 16.8494 27.1427 15.5797 27.1424 14.2857Z" fill="#7994CA"/>
</svg>
